<svg xmlns="http://www.w3.org/2000/svg" xmlns:xlink="http://www.w3.org/1999/xlink" width="134pt" height="264pt" viewBox="0.00 0.00 134.00 264.00">
<g id="graph0" class="graph" transform="scale(1 1) rotate(0) translate(4 260)">
<polygon fill="white" stroke="none" points="-4,4 -4,-260 130,-260 130,4 -4,4"/>
<!-- 0 -->
<g id="node1" class="node">
<title>0</title>
<path fill="#99ccff" stroke="black" d="M48,-219.5C48,-219.5 78,-219.5 78,-219.5 84,-219.5 90,-225.5 90,-231.5 90,-231.5 90,-243.5 90,-243.5 90,-249.5 84,-255.5 78,-255.5 78,-255.5 48,-255.5 48,-255.5 42,-255.5 36,-249.5 36,-243.5 36,-243.5 36,-231.5 36,-231.5 36,-225.5 42,-219.5 48,-219.5"/>
<text xml:space="preserve" text-anchor="middle" x="63" y="-232.82" font-family="Times,serif" font-size="14.00">0</text>
</g>
<!-- 1 -->
<g id="node2" class="node">
<title>1</title>
<path fill="#99ccff" stroke="black" d="M12,-146.5C12,-146.5 42,-146.5 42,-146.5 48,-146.5 54,-152.5 54,-158.5 54,-158.5 54,-170.5 54,-170.5 54,-176.5 48,-182.5 42,-182.5 42,-182.5 12,-182.5 12,-182.5 6,-182.5 0,-176.5 0,-170.5 0,-170.5 0,-158.5 0,-158.5 0,-152.5 6,-146.5 12,-146.5"/>
<text xml:space="preserve" text-anchor="middle" x="27" y="-159.82" font-family="Times,serif" font-size="14.00">1</text>
</g>
<!-- 0&#45;&gt;1 -->
<g id="edge1" class="edge">
<title>0-&gt;1</title>
<path fill="none" stroke="#777777" d="M54.29,-219.31C50.17,-211.2 45.17,-201.34 40.58,-192.28"/>
<polygon fill="#777777" stroke="#777777" points="36.19,-183.62 44.72,-190.5 37.9,-186.99 40.71,-192.53 40.71,-192.53 40.71,-192.53 37.9,-186.99 36.69,-194.57 36.19,-183.62"/>
</g>
<!-- 2 -->
<g id="node3" class="node">
<title>2</title>
<path fill="#99ccff" stroke="black" d="M84,-146.5C84,-146.5 114,-146.5 114,-146.5 120,-146.5 126,-152.5 126,-158.5 126,-158.5 126,-170.5 126,-170.5 126,-176.5 120,-182.5 114,-182.5 114,-182.5 84,-182.5 84,-182.5 78,-182.5 72,-176.5 72,-170.5 72,-170.5 72,-158.5 72,-158.5 72,-152.5 78,-146.5 84,-146.5"/>
<text xml:space="preserve" text-anchor="middle" x="99" y="-159.82" font-family="Times,serif" font-size="14.00">2</text>
</g>
<!-- 0&#45;&gt;2 -->
<g id="edge2" class="edge">
<title>0-&gt;2</title>
<path fill="none" stroke="#777777" d="M71.71,-219.31C75.83,-211.2 80.83,-201.34 85.42,-192.28"/>
<polygon fill="#777777" stroke="#777777" points="89.81,-183.62 89.31,-194.57 88.1,-186.99 85.29,-192.53 85.29,-192.53 85.29,-192.53 88.1,-186.99 81.28,-190.5 89.81,-183.62"/>
</g>
<!-- 3 -->
<g id="node4" class="node">
<title>3</title>
<path fill="#99ccff" stroke="black" d="M48,-73.5C48,-73.5 78,-73.5 78,-73.5 84,-73.5 90,-79.5 90,-85.5 90,-85.5 90,-97.5 90,-97.5 90,-103.5 84,-109.5 78,-109.5 78,-109.5 48,-109.5 48,-109.5 42,-109.5 36,-103.5 36,-97.5 36,-97.5 36,-85.5 36,-85.5 36,-79.5 42,-73.5 48,-73.5"/>
<text xml:space="preserve" text-anchor="middle" x="63" y="-86.83" font-family="Times,serif" font-size="14.00">3</text>
</g>
<!-- 1&#45;&gt;3 -->
<g id="edge3" class="edge">
<title>1-&gt;3</title>
<path fill="none" stroke="#777777" d="M35.71,-146.31C39.83,-138.2 44.83,-128.34 49.42,-119.28"/>
<polygon fill="#777777" stroke="#777777" points="53.81,-110.62 53.31,-121.57 52.1,-113.99 49.29,-119.53 49.29,-119.53 49.29,-119.53 52.1,-113.99 45.28,-117.5 53.81,-110.62"/>
</g>
<!-- 2&#45;&gt;3 -->
<g id="edge4" class="edge">
<title>2-&gt;3</title>
<path fill="none" stroke="#777777" d="M90.29,-146.31C86.17,-138.2 81.17,-128.34 76.58,-119.28"/>
<polygon fill="#777777" stroke="#777777" points="72.19,-110.62 80.72,-117.5 73.9,-113.99 76.71,-119.53 76.71,-119.53 76.71,-119.53 73.9,-113.99 72.69,-121.57 72.19,-110.62"/>
</g>
<!-- 4 -->
<g id="node5" class="node">
<title>4</title>
<path fill="#99ccff" stroke="black" d="M48,-0.5C48,-0.5 78,-0.5 78,-0.5 84,-0.5 90,-6.5 90,-12.5 90,-12.5 90,-24.5 90,-24.5 90,-30.5 84,-36.5 78,-36.5 78,-36.5 48,-36.5 48,-36.5 42,-36.5 36,-30.5 36,-24.5 36,-24.5 36,-12.5 36,-12.5 36,-6.5 42,-0.5 48,-0.5"/>
<text xml:space="preserve" text-anchor="middle" x="63" y="-13.82" font-family="Times,serif" font-size="14.00">4</text>
</g>
<!-- 3&#45;&gt;4 -->
<g id="edge5" class="edge">
<title>3-&gt;4</title>
<path fill="none" stroke="#777777" d="M63,-73.31C63,-65.64 63,-56.39 63,-47.74"/>
<polygon fill="#777777" stroke="#777777" points="63,-37.75 67.5,-47.75 63,-41.53 63,-47.75 63,-47.75 63,-47.75 63,-41.53 58.5,-47.75 63,-37.75"/>
</g>
</g>
</svg>