<svg xmlns="http://www.w3.org/2000/svg" xmlns:xlink="http://www.w3.org/1999/xlink" width="206pt" height="264pt" viewBox="0.00 0.00 206.00 264.00">
<g id="graph0" class="graph" transform="scale(1 1) rotate(0) translate(4 260)">
<polygon fill="white" stroke="none" points="-4,4 -4,-260 202,-260 202,4 -4,4"/>
<!-- 0 -->
<g id="node1" class="node">
<title>0</title>
<path fill="#99ccff" stroke="black" d="M84,-219.5C84,-219.5 114,-219.5 114,-219.5 120,-219.5 126,-225.5 126,-231.5 126,-231.5 126,-243.5 126,-243.5 126,-249.5 120,-255.5 114,-255.5 114,-255.5 84,-255.5 84,-255.5 78,-255.5 72,-249.5 72,-243.5 72,-243.5 72,-231.5 72,-231.5 72,-225.5 78,-219.5 84,-219.5"/>
<text xml:space="preserve" text-anchor="middle" x="99" y="-232.82" font-family="Times,serif" font-size="14.00">0</text>
</g>
<!-- 1 -->
<g id="node2" class="node">
<title>1</title>
<path fill="#99ccff" stroke="black" d="M12,-146.5C12,-146.5 42,-146.5 42,-146.5 48,-146.5 54,-152.5 54,-158.5 54,-158.5 54,-170.5 54,-170.5 54,-176.5 48,-182.5 42,-182.5 42,-182.5 12,-182.5 12,-182.5 6,-182.5 0,-176.5 0,-170.5 0,-170.5 0,-158.5 0,-158.5 0,-152.5 6,-146.5 12,-146.5"/>
<text xml:space="preserve" text-anchor="middle" x="27" y="-159.82" font-family="Times,serif" font-size="14.00">1</text>
</g>
<!-- 0&#45;&gt;1 -->
<g id="edge1" class="edge">
<title>0-&gt;1</title>
<path fill="none" stroke="#777777" d="M81.57,-219.31C72.79,-210.66 61.98,-200 52.31,-190.46"/>
<polygon fill="#777777" stroke="#777777" points="45.39,-183.63 55.67,-187.45 48.08,-186.29 52.51,-190.65 52.51,-190.65 52.51,-190.65 48.08,-186.29 49.35,-193.86 45.39,-183.63"/>
</g>
<!-- 2 -->
<g id="node3" class="node">
<title>2</title>
<path fill="#99ccff" stroke="black" d="M84,-146.5C84,-146.5 114,-146.5 114,-146.5 120,-146.5 126,-152.5 126,-158.5 126,-158.5 126,-170.5 126,-170.5 126,-176.5 120,-182.5 114,-182.5 114,-182.5 84,-182.5 84,-182.5 78,-182.5 72,-176.5 72,-170.5 72,-170.5 72,-158.5 72,-158.5 72,-152.5 78,-146.5 84,-146.5"/>
<text xml:space="preserve" text-anchor="middle" x="99" y="-159.82" font-family="Times,serif" font-size="14.00">2</text>
</g>
<!-- 0&#45;&gt;2 -->
<g id="edge2" class="edge">
<title>0-&gt;2</title>
<path fill="none" stroke="#777777" d="M99,-219.31C99,-211.64 99,-202.39 99,-193.74"/>
<polygon fill="#777777" stroke="#777777" points="99,-183.75 103.5,-193.75 99,-187.53 99,-193.75 99,-193.75 99,-193.75 99,-187.53 94.5,-193.75 99,-183.75"/>
</g>
<!-- 3 -->
<g id="node4" class="node">
<title>3</title>
<path fill="#99ccff" stroke="black" d="M156,-146.5C156,-146.5 186,-146.5 186,-146.5 192,-146.5 198,-152.5 198,-158.5 198,-158.5 198,-170.5 198,-170.5 198,-176.5 192,-182.5 186,-182.5 186,-182.5 156,-182.5 156,-182.5 150,-182.5 144,-176.5 144,-170.5 144,-170.5 144,-158.5 144,-158.5 144,-152.5 150,-146.5 156,-146.5"/>
<text xml:space="preserve" text-anchor="middle" x="171" y="-159.82" font-family="Times,serif" font-size="14.00">3</text>
</g>
<!-- 0&#45;&gt;3 -->
<g id="edge3" class="edge">
<title>0-&gt;3</title>
<path fill="none" stroke="#777777" d="M116.43,-219.31C125.21,-210.66 136.02,-200 145.69,-190.46"/>
<polygon fill="#777777" stroke="#777777" points="152.61,-183.63 148.65,-193.86 149.92,-186.29 145.49,-190.65 145.49,-190.65 145.49,-190.65 149.92,-186.29 142.33,-187.45 152.61,-183.63"/>
</g>
<!-- 4 -->
<g id="node5" class="node">
<title>4</title>
<path fill="#99ccff" stroke="black" d="M84,-73.5C84,-73.5 114,-73.5 114,-73.5 120,-73.5 126,-79.5 126,-85.5 126,-85.5 126,-97.5 126,-97.5 126,-103.5 120,-109.5 114,-109.5 114,-109.5 84,-109.5 84,-109.5 78,-109.5 72,-103.5 72,-97.5 72,-97.5 72,-85.5 72,-85.5 72,-79.5 78,-73.5 84,-73.5"/>
<text xml:space="preserve" text-anchor="middle" x="99" y="-86.83" font-family="Times,serif" font-size="14.00">4</text>
</g>
<!-- 1&#45;&gt;4 -->
<g id="edge4" class="edge">
<title>1-&gt;4</title>
<path fill="none" stroke="#777777" d="M44.43,-146.31C53.21,-137.66 64.02,-127 73.69,-117.46"/>
<polygon fill="#777777" stroke="#777777" points="80.61,-110.63 76.65,-120.86 77.92,-113.29 73.49,-117.65 73.49,-117.65 73.49,-117.65 77.92,-113.29 70.33,-114.45 80.61,-110.63"/>
</g>
<!-- 2&#45;&gt;4 -->
<g id="edge5" class="edge">
<title>2-&gt;4</title>
<path fill="none" stroke="#777777" d="M99,-146.31C99,-138.64 99,-129.39 99,-120.74"/>
<polygon fill="#777777" stroke="#777777" points="99,-110.75 103.5,-120.75 99,-114.53 99,-120.75 99,-120.75 99,-120.75 99,-114.53 94.5,-120.75 99,-110.75"/>
</g>
<!-- 3&#45;&gt;4 -->
<g id="edge6" class="edge">
<title>3-&gt;4</title>
<path fill="none" stroke="#777777" d="M153.57,-146.31C144.79,-137.66 133.98,-127 124.31,-117.46"/>
<polygon fill="#777777" stroke="#777777" points="117.39,-110.63 127.67,-114.45 120.08,-113.29 124.51,-117.65 124.51,-117.65 124.51,-117.65 120.08,-113.29 121.35,-120.86 117.39,-110.63"/>
</g>
<!-- 5 -->
<g id="node6" class="node">
<title>5</title>
<path fill="#99ccff" stroke="black" d="M84,-0.5C84,-0.5 114,-0.5 114,-0.5 120,-0.5 126,-6.5 126,-12.5 126,-12.5 126,-24.5 126,-24.5 126,-30.5 120,-36.5 114,-36.5 114,-36.5 84,-36.5 84,-36.5 78,-36.5 72,-30.5 72,-24.5 72,-24.5 72,-12.5 72,-12.5 72,-6.5 78,-0.5 84,-0.5"/>
<text xml:space="preserve" text-anchor="middle" x="99" y="-13.82" font-family="Times,serif" font-size="14.00">5</text>
</g>
<!-- 4&#45;&gt;5 -->
<g id="edge7" class="edge">
<title>4-&gt;5</title>
<path fill="none" stroke="#777777" d="M99,-73.31C99,-65.64 99,-56.39 99,-47.74"/>
<polygon fill="#777777" stroke="#777777" points="99,-37.75 103.5,-47.75 99,-41.53 99,-47.75 99,-47.75 99,-47.75 99,-41.53 94.5,-47.75 99,-37.75"/>
</g>
</g>
</svg>