<svg xmlns="http://www.w3.org/2000/svg" xmlns:xlink="http://www.w3.org/1999/xlink" width="134pt" height="118pt" viewBox="0.00 0.00 134.00 118.00">
<g id="graph0" class="graph" transform="scale(1 1) rotate(0) translate(4 114)">
<polygon fill="white" stroke="none" points="-4,4 -4,-114 130,-114 130,4 -4,4"/>
<!-- 0 -->
<g id="node1" class="node">
<title>0</title>
<path fill="#99ccff" stroke="black" d="M48,-73.5C48,-73.5 78,-73.5 78,-73.5 84,-73.5 90,-79.5 90,-85.5 90,-85.5 90,-97.5 90,-97.5 90,-103.5 84,-109.5 78,-109.5 78,-109.5 48,-109.5 48,-109.5 42,-109.5 36,-103.5 36,-97.5 36,-97.5 36,-85.5 36,-85.5 36,-79.5 42,-73.5 48,-73.5"/>
<text xml:space="preserve" text-anchor="middle" x="63" y="-86.83" font-family="Times,serif" font-size="14.00">0</text>
</g>
<!-- 1 -->
<g id="node2" class="node">
<title>1</title>
<path fill="#99ccff" stroke="black" d="M12,-0.5C12,-0.5 42,-0.5 42,-0.5 48,-0.5 54,-6.5 54,-12.5 54,-12.5 54,-24.5 54,-24.5 54,-30.5 48,-36.5 42,-36.5 42,-36.5 12,-36.5 12,-36.5 6,-36.5 0,-30.5 0,-24.5 0,-24.5 0,-12.5 0,-12.5 0,-6.5 6,-0.5 12,-0.5"/>
<text xml:space="preserve" text-anchor="middle" x="27" y="-13.82" font-family="Times,serif" font-size="14.00">1</text>
</g>
<!-- 0&#45;&gt;1 -->
<g id="edge1" class="edge">
<title>0-&gt;1</title>
<path fill="none" stroke="#777777" d="M54.29,-73.31C50.17,-65.2 45.17,-55.34 40.58,-46.28"/>
<polygon fill="#777777" stroke="#777777" points="36.19,-37.62 44.72,-44.5 37.9,-40.99 40.71,-46.53 40.71,-46.53 40.71,-46.53 37.9,-40.99 36.69,-48.57 36.19,-37.62"/>
</g>
<!-- 2 -->
<g id="node3" class="node">
<title>2</title>
<path fill="#99ccff" stroke="black" d="M84,-0.5C84,-0.5 114,-0.5 114,-0.5 120,-0.5 126,-6.5 126,-12.5 126,-12.5 126,-24.5 126,-24.5 126,-30.5 120,-36.5 114,-36.5 114,-36.5 84,-36.5 84,-36.5 78,-36.5 72,-30.5 72,-24.5 72,-24.5 72,-12.5 72,-12.5 72,-6.5 78,-0.5 84,-0.5"/>
<text xml:space="preserve" text-anchor="middle" x="99" y="-13.82" font-family="Times,serif" font-size="14.00">2</text>
</g>
<!-- 0&#45;&gt;2 -->
<g id="edge2" class="edge">
<title>0-&gt;2</title>
<path fill="none" stroke="#777777" d="M71.71,-73.31C75.83,-65.2 80.83,-55.34 85.42,-46.28"/>
<polygon fill="#777777" stroke="#777777" points="89.81,-37.62 89.31,-48.57 88.1,-40.99 85.29,-46.53 85.29,-46.53 85.29,-46.53 88.1,-40.99 81.28,-44.5 89.81,-37.62"/>
</g>
</g>
</svg>