<svg xmlns="http://www.w3.org/2000/svg" xmlns:xlink="http://www.w3.org/1999/xlink" width="206pt" height="410pt" viewBox="0.00 0.00 206.00 410.00">
<g id="graph0" class="graph" transform="scale(1 1) rotate(0) translate(4 406)">
<polygon fill="white" stroke="none" points="-4,4 -4,-406 202,-406 202,4 -4,4"/>
<!-- 0 -->
<g id="node1" class="node">
<title>0</title>
<path fill="#99ccff" stroke="black" d="M84,-365.5C84,-365.5 114,-365.5 114,-365.5 120,-365.5 126,-371.5 126,-377.5 126,-377.5 126,-389.5 126,-389.5 126,-395.5 120,-401.5 114,-401.5 114,-401.5 84,-401.5 84,-401.5 78,-401.5 72,-395.5 72,-389.5 72,-389.5 72,-377.5 72,-377.5 72,-371.5 78,-365.5 84,-365.5"/>
<text xml:space="preserve" text-anchor="middle" x="99" y="-378.82" font-family="Times,serif" font-size="14.00">0</text>
</g>
<!-- 1 -->
<g id="node2" class="node">
<title>1</title>
<path fill="#99ccff" stroke="black" d="M12,-292.5C12,-292.5 42,-292.5 42,-292.5 48,-292.5 54,-298.5 54,-304.5 54,-304.5 54,-316.5 54,-316.5 54,-322.5 48,-328.5 42,-328.5 42,-328.5 12,-328.5 12,-328.5 6,-328.5 0,-322.5 0,-316.5 0,-316.5 0,-304.5 0,-304.5 0,-298.5 6,-292.5 12,-292.5"/>
<text xml:space="preserve" text-anchor="middle" x="27" y="-305.82" font-family="Times,serif" font-size="14.00">1</text>
</g>
<!-- 0&#45;&gt;1 -->
<g id="edge1" class="edge">
<title>0-&gt;1</title>
<path fill="none" stroke="#777777" d="M81.57,-365.31C72.79,-356.66 61.98,-346 52.31,-336.46"/>
<polygon fill="#777777" stroke="#777777" points="45.39,-329.63 55.67,-333.45 48.08,-332.29 52.51,-336.65 52.51,-336.65 52.51,-336.65 48.08,-332.29 49.35,-339.86 45.39,-329.63"/>
</g>
<!-- 2 -->
<g id="node3" class="node">
<title>2</title>
<path fill="#99ccff" stroke="black" d="M84,-292.5C84,-292.5 114,-292.5 114,-292.5 120,-292.5 126,-298.5 126,-304.5 126,-304.5 126,-316.5 126,-316.5 126,-322.5 120,-328.5 114,-328.5 114,-328.5 84,-328.5 84,-328.5 78,-328.5 72,-322.5 72,-316.5 72,-316.5 72,-304.5 72,-304.5 72,-298.5 78,-292.5 84,-292.5"/>
<text xml:space="preserve" text-anchor="middle" x="99" y="-305.82" font-family="Times,serif" font-size="14.00">2</text>
</g>
<!-- 0&#45;&gt;2 -->
<g id="edge2" class="edge">
<title>0-&gt;2</title>
<path fill="none" stroke="#777777" d="M99,-365.31C99,-357.64 99,-348.39 99,-339.74"/>
<polygon fill="#777777" stroke="#777777" points="99,-329.75 103.5,-339.75 99,-333.53 99,-339.75 99,-339.75 99,-339.75 99,-333.53 94.5,-339.75 99,-329.75"/>
</g>
<!-- 3 -->
<g id="node4" class="node">
<title>3</title>
<path fill="#99ccff" stroke="black" d="M156,-292.5C156,-292.5 186,-292.5 186,-292.5 192,-292.5 198,-298.5 198,-304.5 198,-304.5 198,-316.5 198,-316.5 198,-322.5 192,-328.5 186,-328.5 186,-328.5 156,-328.5 156,-328.5 150,-328.5 144,-322.5 144,-316.5 144,-316.5 144,-304.5 144,-304.5 144,-298.5 150,-292.5 156,-292.5"/>
<text xml:space="preserve" text-anchor="middle" x="171" y="-305.82" font-family="Times,serif" font-size="14.00">3</text>
</g>
<!-- 0&#45;&gt;3 -->
<g id="edge3" class="edge">
<title>0-&gt;3</title>
<path fill="none" stroke="#777777" d="M116.43,-365.31C125.21,-356.66 136.02,-346 145.69,-336.46"/>
<polygon fill="#777777" stroke="#777777" points="152.61,-329.63 148.65,-339.86 149.92,-332.29 145.49,-336.65 145.49,-336.65 145.49,-336.65 149.92,-332.29 142.33,-333.45 152.61,-329.63"/>
</g>
<!-- 4 -->
<g id="node5" class="node">
<title>4</title>
<path fill="#99ccff" stroke="black" d="M84,-219.5C84,-219.5 114,-219.5 114,-219.5 120,-219.5 126,-225.5 126,-231.5 126,-231.5 126,-243.5 126,-243.5 126,-249.5 120,-255.5 114,-255.5 114,-255.5 84,-255.5 84,-255.5 78,-255.5 72,-249.5 72,-243.5 72,-243.5 72,-231.5 72,-231.5 72,-225.5 78,-219.5 84,-219.5"/>
<text xml:space="preserve" text-anchor="middle" x="99" y="-232.82" font-family="Times,serif" font-size="14.00">4</text>
</g>
<!-- 1&#45;&gt;4 -->
<g id="edge4" class="edge">
<title>1-&gt;4</title>
<path fill="none" stroke="#777777" d="M44.43,-292.31C53.21,-283.66 64.02,-273 73.69,-263.46"/>
<polygon fill="#777777" stroke="#777777" points="80.61,-256.63 76.65,-266.86 77.92,-259.29 73.49,-263.65 73.49,-263.65 73.49,-263.65 77.92,-259.29 70.33,-260.45 80.61,-256.63"/>
</g>
<!-- 2&#45;&gt;4 -->
<g id="edge5" class="edge">
<title>2-&gt;4</title>
<path fill="none" stroke="#777777" d="M99,-292.31C99,-284.64 99,-275.39 99,-266.74"/>
<polygon fill="#777777" stroke="#777777" points="99,-256.75 103.5,-266.75 99,-260.53 99,-266.75 99,-266.75 99,-266.75 99,-260.53 94.5,-266.75 99,-256.75"/>
</g>
<!-- 3&#45;&gt;4 -->
<g id="edge6" class="edge">
<title>3-&gt;4</title>
<path fill="none" stroke="#777777" d="M153.57,-292.31C144.79,-283.66 133.98,-273 124.31,-263.46"/>
<polygon fill="#777777" stroke="#777777" points="117.39,-256.63 127.67,-260.45 120.08,-259.29 124.51,-263.65 124.51,-263.65 124.51,-263.65 120.08,-259.29 121.35,-266.86 117.39,-256.63"/>
</g>
<!-- 5 -->
<g id="node6" class="node">
<title>5</title>
<path fill="#99ccff" stroke="black" d="M84,-146.5C84,-146.5 114,-146.5 114,-146.5 120,-146.5 126,-152.5 126,-158.5 126,-158.5 126,-170.5 126,-170.5 126,-176.5 120,-182.5 114,-182.5 114,-182.5 84,-182.5 84,-182.5 78,-182.5 72,-176.5 72,-170.5 72,-170.5 72,-158.5 72,-158.5 72,-152.5 78,-146.5 84,-146.5"/>
<text xml:space="preserve" text-anchor="middle" x="99" y="-159.82" font-family="Times,serif" font-size="14.00">5</text>
</g>
<!-- 4&#45;&gt;5 -->
<g id="edge7" class="edge">
<title>4-&gt;5</title>
<path fill="none" stroke="#777777" d="M99,-219.31C99,-211.64 99,-202.39 99,-193.74"/>
<polygon fill="#777777" stroke="#777777" points="99,-183.75 103.5,-193.75 99,-187.53 99,-193.75 99,-193.75 99,-193.75 99,-187.53 94.5,-193.75 99,-183.75"/>
</g>
<!-- 6 -->
<g id="node7" class="node">
<title>6</title>
<path fill="#99ccff" stroke="black" d="M84,-73.5C84,-73.5 114,-73.5 114,-73.5 120,-73.5 126,-79.5 126,-85.5 126,-85.5 126,-97.5 126,-97.5 126,-103.5 120,-109.5 114,-109.5 114,-109.5 84,-109.5 84,-109.5 78,-109.5 72,-103.5 72,-97.5 72,-97.5 72,-85.5 72,-85.5 72,-79.5 78,-73.5 84,-73.5"/>
<text xml:space="preserve" text-anchor="middle" x="99" y="-86.83" font-family="Times,serif" font-size="14.00">6</text>
</g>
<!-- 5&#45;&gt;6 -->
<g id="edge8" class="edge">
<title>5-&gt;6</title>
<path fill="none" stroke="#777777" d="M99,-146.31C99,-138.64 99,-129.39 99,-120.74"/>
<polygon fill="#777777" stroke="#777777" points="99,-110.75 103.5,-120.75 99,-114.53 99,-120.75 99,-120.75 99,-120.75 99,-114.53 94.5,-120.75 99,-110.75"/>
</g>
<!-- 7 -->
<g id="node8" class="node">
<title>7</title>
<path fill="#99ccff" stroke="black" d="M84,-0.5C84,-0.5 114,-0.5 114,-0.5 120,-0.5 126,-6.5 126,-12.5 126,-12.5 126,-24.5 126,-24.5 126,-30.5 120,-36.5 114,-36.5 114,-36.5 84,-36.5 84,-36.5 78,-36.5 72,-30.5 72,-24.5 72,-24.5 72,-12.5 72,-12.5 72,-6.5 78,-0.5 84,-0.5"/>
<text xml:space="preserve" text-anchor="middle" x="99" y="-13.82" font-family="Times,serif" font-size="14.00">7</text>
</g>
<!-- 6&#45;&gt;7 -->
<g id="edge9" class="edge">
<title>6-&gt;7</title>
<path fill="none" stroke="#777777" d="M99,-73.31C99,-65.64 99,-56.39 99,-47.74"/>
<polygon fill="#777777" stroke="#777777" points="99,-37.75 103.5,-47.75 99,-41.53 99,-47.75 99,-47.75 99,-47.75 99,-41.53 94.5,-47.75 99,-37.75"/>
</g>
</g>
</svg>