<svg xmlns="http://www.w3.org/2000/svg" xmlns:xlink="http://www.w3.org/1999/xlink" width="426pt" height="117pt" viewBox="0.00 0.00 426.00 117.00">
<g id="graph0" class="graph" transform="scale(1 1) rotate(0) translate(4 112.75)">
<polygon fill="white" stroke="none" points="-4,4 -4,-112.75 421.75,-112.75 421.75,4 -4,4"/>
<g id="clust1" class="cluster">
<title>cluster_0</title>
<polygon fill="gray" stroke="black" points="131.75,-8 131.75,-100.75 409.75,-100.75 409.75,-8 131.75,-8"/>
<text xml:space="preserve" text-anchor="middle" x="270.75" y="-83.45" font-family="Times,serif" font-size="14.00">cluster: 0</text>
</g>
<!-- 0 -->
<g id="node1" class="node">
<title>0</title>
<path fill="#99ccff" stroke="black" d="M12,-16.5C12,-16.5 109.5,-16.5 109.5,-16.5 115.5,-16.5 121.5,-22.5 121.5,-28.5 121.5,-28.5 121.5,-55 121.5,-55 121.5,-61 115.5,-67 109.5,-67 109.5,-67 12,-67 12,-67 6,-67 0,-61 0,-55 0,-55 0,-28.5 0,-28.5 0,-22.5 6,-16.5 12,-16.5"/>
<text xml:space="preserve" text-anchor="middle" x="12.88" y="-37.08" font-family="Times,serif" font-size="14.00">A</text>
<polyline fill="none" stroke="black" points="25.75,-16.5 25.75,-67"/>
<text xml:space="preserve" text-anchor="middle" x="52.12" y="-49.7" font-family="Times,serif" font-size="14.00">in:0</text>
<polyline fill="none" stroke="black" points="25.75,-41.75 78.5,-41.75"/>
<text xml:space="preserve" text-anchor="middle" x="52.12" y="-24.45" font-family="Times,serif" font-size="14.00">out:3</text>
<polyline fill="none" stroke="black" points="78.5,-16.5 78.5,-67"/>
<text xml:space="preserve" text-anchor="middle" x="100" y="-37.08" font-family="Times,serif" font-size="14.00">id:0</text>
</g>
<!-- 1 -->
<g id="node2" class="node">
<title>1</title>
<path fill="#99ccff" stroke="black" d="M151.62,-16.5C151.62,-16.5 249.88,-16.5 249.88,-16.5 255.88,-16.5 261.88,-22.5 261.88,-28.5 261.88,-28.5 261.88,-55 261.88,-55 261.88,-61 255.88,-67 249.88,-67 249.88,-67 151.62,-67 151.62,-67 145.62,-67 139.62,-61 139.62,-55 139.62,-55 139.62,-28.5 139.62,-28.5 139.62,-22.5 145.62,-16.5 151.62,-16.5"/>
<text xml:space="preserve" text-anchor="middle" x="152.88" y="-37.08" font-family="Times,serif" font-size="14.00">B</text>
<polyline fill="none" stroke="black" points="166.12,-16.5 166.12,-67"/>
<text xml:space="preserve" text-anchor="middle" x="192.5" y="-49.7" font-family="Times,serif" font-size="14.00">in:1</text>
<polyline fill="none" stroke="black" points="166.12,-41.75 218.88,-41.75"/>
<text xml:space="preserve" text-anchor="middle" x="192.5" y="-24.45" font-family="Times,serif" font-size="14.00">out:1</text>
<polyline fill="none" stroke="black" points="218.88,-16.5 218.88,-67"/>
<text xml:space="preserve" text-anchor="middle" x="240.38" y="-37.08" font-family="Times,serif" font-size="14.00">id:1</text>
</g>
<!-- 2 -->
<g id="node3" class="node">
<title>2</title>
<path fill="#99ccff" stroke="black" d="M291.62,-16.5C291.62,-16.5 389.88,-16.5 389.88,-16.5 395.88,-16.5 401.88,-22.5 401.88,-28.5 401.88,-28.5 401.88,-55 401.88,-55 401.88,-61 395.88,-67 389.88,-67 389.88,-67 291.62,-67 291.62,-67 285.62,-67 279.62,-61 279.62,-55 279.62,-55 279.62,-28.5 279.62,-28.5 279.62,-22.5 285.62,-16.5 291.62,-16.5"/>
<text xml:space="preserve" text-anchor="middle" x="292.88" y="-37.08" font-family="Times,serif" font-size="14.00">C</text>
<polyline fill="none" stroke="black" points="306.12,-16.5 306.12,-67"/>
<text xml:space="preserve" text-anchor="middle" x="332.5" y="-49.7" font-family="Times,serif" font-size="14.00">in:1</text>
<polyline fill="none" stroke="black" points="306.12,-41.75 358.88,-41.75"/>
<text xml:space="preserve" text-anchor="middle" x="332.5" y="-24.45" font-family="Times,serif" font-size="14.00">out:1</text>
<polyline fill="none" stroke="black" points="358.88,-16.5 358.88,-67"/>
<text xml:space="preserve" text-anchor="middle" x="380.38" y="-37.08" font-family="Times,serif" font-size="14.00">id:2</text>
</g>
</g>
</svg>