<svg xmlns="http://www.w3.org/2000/svg" xmlns:xlink="http://www.w3.org/1999/xlink" width="694pt" height="338pt" viewBox="0.00 0.00 694.00 338.00">
<g id="graph0" class="graph" transform="scale(1 1) rotate(0) translate(4 334)">
<polygon fill="white" stroke="none" points="-4,4 -4,-334 690,-334 690,4 -4,4"/>
<g id="clust1" class="cluster">
<title>cluster_0</title>
<polygon fill="none" stroke="black" points="8,-95.5 8,-250.5 678,-250.5 678,-95.5 8,-95.5"/>
</g>
<g id="clust2" class="cluster">
<title>cluster_1</title>
<polygon fill="none" stroke="black" points="232,-8 232,-75.5 454,-75.5 454,-8 232,-8"/>
</g>
<!-- 0 -->
<g id="node1" class="node">
<title>0</title>
<path fill="#99ccff" stroke="black" d="M254.75,-279C254.75,-279 431.25,-279 431.25,-279 437.25,-279 443.25,-285 443.25,-291 443.25,-291 443.25,-317.5 443.25,-317.5 443.25,-323.5 437.25,-329.5 431.25,-329.5 431.25,-329.5 254.75,-329.5 254.75,-329.5 248.75,-329.5 242.75,-323.5 242.75,-317.5 242.75,-317.5 242.75,-291 242.75,-291 242.75,-285 248.75,-279 254.75,-279"/>
<text xml:space="preserve" text-anchor="middle" x="255.62" y="-299.57" font-family="Times,serif" font-size="14.00">A</text>
<polyline fill="none" stroke="black" points="268.5,-279 268.5,-329.5"/>
<text xml:space="preserve" text-anchor="middle" x="294.88" y="-312.2" font-family="Times,serif" font-size="14.00">in:0</text>
<polyline fill="none" stroke="black" points="268.5,-304.25 321.25,-304.25"/>
<text xml:space="preserve" text-anchor="middle" x="294.88" y="-286.95" font-family="Times,serif" font-size="14.00">out:3</text>
<polyline fill="none" stroke="black" points="321.25,-279 321.25,-329.5"/>
<text xml:space="preserve" text-anchor="middle" x="342.75" y="-299.57" font-family="Times,serif" font-size="14.00">id:0</text>
<polyline fill="none" stroke="black" points="364.25,-279 364.25,-329.5"/>
<text xml:space="preserve" text-anchor="middle" x="403.75" y="-299.57" font-family="Times,serif" font-size="14.00">cluster: -</text>
</g>
<!-- 1 -->
<g id="node2" class="node">
<title>1</title>
<path fill="#99ccff" stroke="black" d="M28.12,-191.5C28.12,-191.5 209.88,-191.5 209.88,-191.5 215.88,-191.5 221.88,-197.5 221.88,-203.5 221.88,-203.5 221.88,-230 221.88,-230 221.88,-236 215.88,-242 209.88,-242 209.88,-242 28.12,-242 28.12,-242 22.12,-242 16.12,-236 16.12,-230 16.12,-230 16.12,-203.5 16.12,-203.5 16.12,-197.5 22.12,-191.5 28.12,-191.5"/>
<text xml:space="preserve" text-anchor="middle" x="29.38" y="-212.07" font-family="Times,serif" font-size="14.00">B</text>
<polyline fill="none" stroke="black" points="42.62,-191.5 42.62,-242"/>
<text xml:space="preserve" text-anchor="middle" x="69" y="-224.7" font-family="Times,serif" font-size="14.00">in:1</text>
<polyline fill="none" stroke="black" points="42.62,-216.75 95.38,-216.75"/>
<text xml:space="preserve" text-anchor="middle" x="69" y="-199.45" font-family="Times,serif" font-size="14.00">out:1</text>
<polyline fill="none" stroke="black" points="95.38,-191.5 95.38,-242"/>
<text xml:space="preserve" text-anchor="middle" x="116.88" y="-212.07" font-family="Times,serif" font-size="14.00">id:1</text>
<polyline fill="none" stroke="black" points="138.38,-191.5 138.38,-242"/>
<text xml:space="preserve" text-anchor="middle" x="180.12" y="-212.07" font-family="Times,serif" font-size="14.00">cluster: 0</text>
</g>
<!-- 0&#45;&gt;1 -->
<g id="edge1" class="edge">
<title>0-&gt;1</title>
<path fill="none" stroke="black" d="M278.21,-278.52C251.86,-268.46 221.24,-256.77 193.93,-246.35"/>
<polygon fill="black" stroke="black" points="184.78,-242.86 195.73,-242.22 188.32,-244.21 194.13,-246.43 194.13,-246.43 194.13,-246.43 188.32,-244.21 192.52,-250.63 184.78,-242.86"/>
</g>
<!-- 2 -->
<g id="node3" class="node">
<title>2</title>
<path fill="#99ccff" stroke="black" d="M252.12,-191.5C252.12,-191.5 433.88,-191.5 433.88,-191.5 439.88,-191.5 445.88,-197.5 445.88,-203.5 445.88,-203.5 445.88,-230 445.88,-230 445.88,-236 439.88,-242 433.88,-242 433.88,-242 252.12,-242 252.12,-242 246.12,-242 240.12,-236 240.12,-230 240.12,-230 240.12,-203.5 240.12,-203.5 240.12,-197.5 246.12,-191.5 252.12,-191.5"/>
<text xml:space="preserve" text-anchor="middle" x="253.38" y="-212.07" font-family="Times,serif" font-size="14.00">C</text>
<polyline fill="none" stroke="black" points="266.62,-191.5 266.62,-242"/>
<text xml:space="preserve" text-anchor="middle" x="293" y="-224.7" font-family="Times,serif" font-size="14.00">in:1</text>
<polyline fill="none" stroke="black" points="266.62,-216.75 319.38,-216.75"/>
<text xml:space="preserve" text-anchor="middle" x="293" y="-199.45" font-family="Times,serif" font-size="14.00">out:1</text>
<polyline fill="none" stroke="black" points="319.38,-191.5 319.38,-242"/>
<text xml:space="preserve" text-anchor="middle" x="340.88" y="-212.07" font-family="Times,serif" font-size="14.00">id:2</text>
<polyline fill="none" stroke="black" points="362.38,-191.5 362.38,-242"/>
<text xml:space="preserve" text-anchor="middle" x="404.12" y="-212.07" font-family="Times,serif" font-size="14.00">cluster: 0</text>
</g>
<!-- 0&#45;&gt;2 -->
<g id="edge2" class="edge">
<title>0-&gt;2</title>
<path fill="none" stroke="black" d="M343,-278.52C343,-270.72 343,-261.94 343,-253.53"/>
<polygon fill="black" stroke="black" points="343,-243.64 347.5,-253.64 343,-247.42 343,-253.64 343,-253.64 343,-253.64 343,-247.42 338.5,-253.64 343,-243.64"/>
</g>
<!-- 3 -->
<g id="node4" class="node">
<title>3</title>
<path fill="#99ccff" stroke="black" d="M475.75,-191.5C475.75,-191.5 658.25,-191.5 658.25,-191.5 664.25,-191.5 670.25,-197.5 670.25,-203.5 670.25,-203.5 670.25,-230 670.25,-230 670.25,-236 664.25,-242 658.25,-242 658.25,-242 475.75,-242 475.75,-242 469.75,-242 463.75,-236 463.75,-230 463.75,-230 463.75,-203.5 463.75,-203.5 463.75,-197.5 469.75,-191.5 475.75,-191.5"/>
<text xml:space="preserve" text-anchor="middle" x="477.38" y="-212.07" font-family="Times,serif" font-size="14.00">D</text>
<polyline fill="none" stroke="black" points="491,-191.5 491,-242"/>
<text xml:space="preserve" text-anchor="middle" x="517.38" y="-224.7" font-family="Times,serif" font-size="14.00">in:1</text>
<polyline fill="none" stroke="black" points="491,-216.75 543.75,-216.75"/>
<text xml:space="preserve" text-anchor="middle" x="517.38" y="-199.45" font-family="Times,serif" font-size="14.00">out:1</text>
<polyline fill="none" stroke="black" points="543.75,-191.5 543.75,-242"/>
<text xml:space="preserve" text-anchor="middle" x="565.25" y="-212.07" font-family="Times,serif" font-size="14.00">id:3</text>
<polyline fill="none" stroke="black" points="586.75,-191.5 586.75,-242"/>
<text xml:space="preserve" text-anchor="middle" x="628.5" y="-212.07" font-family="Times,serif" font-size="14.00">cluster: 0</text>
</g>
<!-- 0&#45;&gt;3 -->
<g id="edge3" class="edge">
<title>0-&gt;3</title>
<path fill="none" stroke="black" d="M407.79,-278.52C434.14,-268.46 464.76,-256.77 492.07,-246.35"/>
<polygon fill="black" stroke="black" points="501.22,-242.86 493.48,-250.63 497.68,-244.21 491.87,-246.43 491.87,-246.43 491.87,-246.43 497.68,-244.21 490.27,-242.22 501.22,-242.86"/>
</g>
<!-- 4 -->
<g id="node5" class="node">
<title>4</title>
<path fill="#99ccff" stroke="black" d="M252.12,-104C252.12,-104 433.88,-104 433.88,-104 439.88,-104 445.88,-110 445.88,-116 445.88,-116 445.88,-142.5 445.88,-142.5 445.88,-148.5 439.88,-154.5 433.88,-154.5 433.88,-154.5 252.12,-154.5 252.12,-154.5 246.12,-154.5 240.12,-148.5 240.12,-142.5 240.12,-142.5 240.12,-116 240.12,-116 240.12,-110 246.12,-104 252.12,-104"/>
<text xml:space="preserve" text-anchor="middle" x="253.38" y="-124.58" font-family="Times,serif" font-size="14.00">E</text>
<polyline fill="none" stroke="black" points="266.62,-104 266.62,-154.5"/>
<text xml:space="preserve" text-anchor="middle" x="293" y="-137.2" font-family="Times,serif" font-size="14.00">in:3</text>
<polyline fill="none" stroke="black" points="266.62,-129.25 319.38,-129.25"/>
<text xml:space="preserve" text-anchor="middle" x="293" y="-111.95" font-family="Times,serif" font-size="14.00">out:1</text>
<polyline fill="none" stroke="black" points="319.38,-104 319.38,-154.5"/>
<text xml:space="preserve" text-anchor="middle" x="340.88" y="-124.58" font-family="Times,serif" font-size="14.00">id:4</text>
<polyline fill="none" stroke="black" points="362.38,-104 362.38,-154.5"/>
<text xml:space="preserve" text-anchor="middle" x="404.12" y="-124.58" font-family="Times,serif" font-size="14.00">cluster: 0</text>
</g>
<!-- 1&#45;&gt;4 -->
<g id="edge4" class="edge">
<title>1-&gt;4</title>
<path fill="none" stroke="black" d="M183.79,-191.02C210.14,-180.96 240.76,-169.27 268.07,-158.85"/>
<polygon fill="black" stroke="black" points="277.22,-155.36 269.48,-163.13 273.68,-156.71 267.87,-158.93 267.87,-158.93 267.87,-158.93 273.68,-156.71 266.27,-154.72 277.22,-155.36"/>
</g>
<!-- 2&#45;&gt;4 -->
<g id="edge5" class="edge">
<title>2-&gt;4</title>
<path fill="none" stroke="black" d="M343,-191.02C343,-183.22 343,-174.44 343,-166.03"/>
<polygon fill="black" stroke="black" points="343,-156.14 347.5,-166.14 343,-159.92 343,-166.14 343,-166.14 343,-166.14 343,-159.92 338.5,-166.14 343,-156.14"/>
</g>
<!-- 3&#45;&gt;4 -->
<g id="edge6" class="edge">
<title>3-&gt;4</title>
<path fill="none" stroke="black" d="M502.21,-191.02C475.86,-180.96 445.24,-169.27 417.93,-158.85"/>
<polygon fill="black" stroke="black" points="408.78,-155.36 419.73,-154.72 412.32,-156.71 418.13,-158.93 418.13,-158.93 418.13,-158.93 412.32,-156.71 416.52,-163.13 408.78,-155.36"/>
</g>
<!-- 5 -->
<g id="node6" class="node">
<title>5</title>
<path fill="#99ccff" stroke="black" d="M252.5,-16.5C252.5,-16.5 433.5,-16.5 433.5,-16.5 439.5,-16.5 445.5,-22.5 445.5,-28.5 445.5,-28.5 445.5,-55 445.5,-55 445.5,-61 439.5,-67 433.5,-67 433.5,-67 252.5,-67 252.5,-67 246.5,-67 240.5,-61 240.5,-55 240.5,-55 240.5,-28.5 240.5,-28.5 240.5,-22.5 246.5,-16.5 252.5,-16.5"/>
<text xml:space="preserve" text-anchor="middle" x="253.38" y="-37.08" font-family="Times,serif" font-size="14.00">F</text>
<polyline fill="none" stroke="black" points="266.25,-16.5 266.25,-67"/>
<text xml:space="preserve" text-anchor="middle" x="292.62" y="-49.7" font-family="Times,serif" font-size="14.00">in:1</text>
<polyline fill="none" stroke="black" points="266.25,-41.75 319,-41.75"/>
<text xml:space="preserve" text-anchor="middle" x="292.62" y="-24.45" font-family="Times,serif" font-size="14.00">out:0</text>
<polyline fill="none" stroke="black" points="319,-16.5 319,-67"/>
<text xml:space="preserve" text-anchor="middle" x="340.5" y="-37.08" font-family="Times,serif" font-size="14.00">id:5</text>
<polyline fill="none" stroke="black" points="362,-16.5 362,-67"/>
<text xml:space="preserve" text-anchor="middle" x="403.75" y="-37.08" font-family="Times,serif" font-size="14.00">cluster: 1</text>
</g>
<!-- 4&#45;&gt;5 -->
<g id="edge7" class="edge">
<title>4-&gt;5</title>
<path fill="none" stroke="black" d="M343,-103.52C343,-95.72 343,-86.94 343,-78.53"/>
<polygon fill="black" stroke="black" points="343,-68.64 347.5,-78.64 343,-72.42 343,-78.64 343,-78.64 343,-78.64 343,-72.42 338.5,-78.64 343,-68.64"/>
</g>
</g>
</svg>