<svg xmlns="http://www.w3.org/2000/svg" xmlns:xlink="http://www.w3.org/1999/xlink" width="62pt" height="116pt" viewBox="0.00 0.00 62.00 116.00">
<g id="graph0" class="graph" transform="scale(1 1) rotate(0) translate(4 112)">
<polygon fill="white" stroke="none" points="-4,4 -4,-112 58,-112 58,4 -4,4"/>
<!-- 0 -->
<g id="node1" class="node">
<title>0</title>
<polygon fill="#ffd39b" stroke="black" points="54,-108 0,-108 0,-104 -4,-104 -4,-100 0,-100 0,-80 -4,-80 -4,-76 0,-76 0,-72 54,-72 54,-108"/>
<polyline fill="none" stroke="black" points="0,-104 4,-104 4,-100 0,-100"/>
<polyline fill="none" stroke="black" points="0,-80 4,-80 4,-76 0,-76"/>
<text xml:space="preserve" text-anchor="start" x="12.38" y="-86.33" font-family="Times,serif" font-weight="bold" font-size="14.00">A:</text>
<text xml:space="preserve" text-anchor="start" x="28.12" y="-86.33" font-family="Times,serif" font-size="14.00">0 </text>
</g>
<!-- 1 -->
<g id="node2" class="node">
<title>1</title>
<polygon fill="#ffd39b" stroke="black" points="54,-36 0,-36 0,-32 -4,-32 -4,-28 0,-28 0,-8 -4,-8 -4,-4 0,-4 0,0 54,0 54,-36"/>
<polyline fill="none" stroke="black" points="0,-32 4,-32 4,-28 0,-28"/>
<polyline fill="none" stroke="black" points="0,-8 4,-8 4,-4 0,-4"/>
<text xml:space="preserve" text-anchor="start" x="11.62" y="-14.32" font-family="Times,serif" font-weight="bold" font-size="14.00">B:</text>
<text xml:space="preserve" text-anchor="start" x="28.88" y="-14.32" font-family="Times,serif" font-size="14.00">1 </text>
</g>
<!-- 0&#45;&gt;1 -->
<g id="edge1" class="edge">
<title>0-&gt;1</title>
<path fill="none" stroke="#777777" d="M27,-71.7C27,-64.32 27,-55.52 27,-47.25"/>
<polygon fill="#777777" stroke="#777777" points="27,-37.32 31.5,-47.32 27,-41.1 27,-47.32 27,-47.32 27,-47.32 27,-41.1 22.5,-47.32 27,-37.32"/>
</g>
</g>
</svg>