<svg xmlns="http://www.w3.org/2000/svg" xmlns:xlink="http://www.w3.org/1999/xlink" width="206pt" height="316pt" viewBox="0.00 0.00 206.00 316.00">
<g id="graph0" class="graph" transform="scale(1 1) rotate(0) translate(4 311.75)">
<polygon fill="white" stroke="none" points="-4,4 -4,-311.75 202,-311.75 202,4 -4,4"/>
<!-- 0 -->
<g id="node1" class="node">
<title>0</title>
<path fill="#99ccff" stroke="black" d="M84,-271.25C84,-271.25 114,-271.25 114,-271.25 120,-271.25 126,-277.25 126,-283.25 126,-283.25 126,-295.25 126,-295.25 126,-301.25 120,-307.25 114,-307.25 114,-307.25 84,-307.25 84,-307.25 78,-307.25 72,-301.25 72,-295.25 72,-295.25 72,-283.25 72,-283.25 72,-277.25 78,-271.25 84,-271.25"/>
<text xml:space="preserve" text-anchor="middle" x="98.88" y="-284.57" font-family="Times,serif" font-size="14.00">A</text>
</g>
<!-- 1 -->
<g id="node2" class="node">
<title>1</title>
<path fill="#99ccff" stroke="black" d="M12,-181C12,-181 42,-181 42,-181 48,-181 54,-187 54,-193 54,-193 54,-205 54,-205 54,-211 48,-217 42,-217 42,-217 12,-217 12,-217 6,-217 0,-211 0,-205 0,-205 0,-193 0,-193 0,-187 6,-181 12,-181"/>
<text xml:space="preserve" text-anchor="middle" x="26.75" y="-194.32" font-family="Times,serif" font-size="14.00">B</text>
</g>
<!-- 0&#45;&gt;1 -->
<g id="edge1" class="edge">
<title>0-&gt;1</title>
<path fill="none" stroke="black" d="M79.83,-270.87C74.09,-265.3 67.94,-258.97 62.75,-252.75 55.95,-244.61 49.23,-235.16 43.48,-226.53"/>
<polygon fill="black" stroke="black" points="38.11,-218.27 47.33,-224.21 40.17,-221.44 43.56,-226.66 43.56,-226.66 43.56,-226.66 40.17,-221.44 39.79,-229.11 38.11,-218.27"/>
<text xml:space="preserve" text-anchor="middle" x="78.88" y="-239.45" font-family="Times,serif" font-size="14.00">A→B</text>
</g>
<!-- 2 -->
<g id="node3" class="node">
<title>2</title>
<path fill="#99ccff" stroke="black" d="M84,-181C84,-181 114,-181 114,-181 120,-181 126,-187 126,-193 126,-193 126,-205 126,-205 126,-211 120,-217 114,-217 114,-217 84,-217 84,-217 78,-217 72,-211 72,-205 72,-205 72,-193 72,-193 72,-187 78,-181 84,-181"/>
<text xml:space="preserve" text-anchor="middle" x="98.75" y="-194.32" font-family="Times,serif" font-size="14.00">C</text>
</g>
<!-- 0&#45;&gt;2 -->
<g id="edge2" class="edge">
<title>0-&gt;2</title>
<path fill="none" stroke="black" d="M99,-270.81C99,-258.73 99,-242.36 99,-228.41"/>
<polygon fill="black" stroke="black" points="99,-218.62 103.5,-228.62 99,-222.4 99,-228.62 99,-228.62 99,-228.62 99,-222.4 94.5,-228.62 99,-218.62"/>
<text xml:space="preserve" text-anchor="middle" x="115.12" y="-239.45" font-family="Times,serif" font-size="14.00">A→C</text>
</g>
<!-- 3 -->
<g id="node4" class="node">
<title>3</title>
<path fill="#99ccff" stroke="black" d="M156,-181C156,-181 186,-181 186,-181 192,-181 198,-187 198,-193 198,-193 198,-205 198,-205 198,-211 192,-217 186,-217 186,-217 156,-217 156,-217 150,-217 144,-211 144,-205 144,-205 144,-193 144,-193 144,-187 150,-181 156,-181"/>
<text xml:space="preserve" text-anchor="middle" x="170.62" y="-194.32" font-family="Times,serif" font-size="14.00">D</text>
</g>
<!-- 0&#45;&gt;3 -->
<g id="edge3" class="edge">
<title>0-&gt;3</title>
<path fill="none" stroke="black" d="M118.02,-270.84C123.72,-265.28 129.82,-258.95 135,-252.75 141.81,-244.59 148.58,-235.14 154.37,-226.51"/>
<polygon fill="black" stroke="black" points="159.78,-218.25 158.06,-229.08 157.71,-221.41 154.3,-226.62 154.3,-226.62 154.3,-226.62 157.71,-221.41 150.53,-224.15 159.78,-218.25"/>
<text xml:space="preserve" text-anchor="middle" x="164.29" y="-239.45" font-family="Times,serif" font-size="14.00">A→D</text>
</g>
<!-- 4 -->
<g id="node5" class="node">
<title>4</title>
<path fill="#99ccff" stroke="black" d="M84,-90.75C84,-90.75 114,-90.75 114,-90.75 120,-90.75 126,-96.75 126,-102.75 126,-102.75 126,-114.75 126,-114.75 126,-120.75 120,-126.75 114,-126.75 114,-126.75 84,-126.75 84,-126.75 78,-126.75 72,-120.75 72,-114.75 72,-114.75 72,-102.75 72,-102.75 72,-96.75 78,-90.75 84,-90.75"/>
<text xml:space="preserve" text-anchor="middle" x="98.75" y="-104.08" font-family="Times,serif" font-size="14.00">E</text>
</g>
<!-- 1&#45;&gt;4 -->
<g id="edge4" class="edge">
<title>1-&gt;4</title>
<path fill="none" stroke="black" d="M37.13,-180.7C43.68,-170.06 52.7,-156.38 62,-145.25 64.95,-141.71 68.22,-138.16 71.56,-134.73"/>
<polygon fill="black" stroke="black" points="78.5,-127.91 74.53,-138.13 75.8,-130.56 71.37,-134.92 71.37,-134.92 71.37,-134.92 75.8,-130.56 68.21,-131.72 78.5,-127.91"/>
<text xml:space="preserve" text-anchor="middle" x="78.5" y="-149.2" font-family="Times,serif" font-size="14.00">B→E</text>
</g>
<!-- 2&#45;&gt;4 -->
<g id="edge5" class="edge">
<title>2-&gt;4</title>
<path fill="none" stroke="black" d="M99,-180.56C99,-168.48 99,-152.11 99,-138.16"/>
<polygon fill="black" stroke="black" points="99,-128.37 103.5,-138.37 99,-132.15 99,-138.37 99,-138.37 99,-138.37 99,-132.15 94.5,-138.37 99,-128.37"/>
<text xml:space="preserve" text-anchor="middle" x="115.5" y="-149.2" font-family="Times,serif" font-size="14.00">C→E</text>
</g>
<!-- 3&#45;&gt;4 -->
<g id="edge6" class="edge">
<title>3-&gt;4</title>
<path fill="none" stroke="black" d="M160.87,-180.7C154.32,-170.06 145.3,-156.38 136,-145.25 133.05,-141.71 129.78,-138.16 126.44,-134.73"/>
<polygon fill="black" stroke="black" points="119.5,-127.91 129.79,-131.72 122.2,-130.56 126.63,-134.92 126.63,-134.92 126.63,-134.92 122.2,-130.56 123.47,-138.13 119.5,-127.91"/>
<text xml:space="preserve" text-anchor="middle" x="165.46" y="-149.2" font-family="Times,serif" font-size="14.00">D→E</text>
</g>
<!-- 5 -->
<g id="node6" class="node">
<title>5</title>
<path fill="#99ccff" stroke="black" d="M84,-0.5C84,-0.5 114,-0.5 114,-0.5 120,-0.5 126,-6.5 126,-12.5 126,-12.5 126,-24.5 126,-24.5 126,-30.5 120,-36.5 114,-36.5 114,-36.5 84,-36.5 84,-36.5 78,-36.5 72,-30.5 72,-24.5 72,-24.5 72,-12.5 72,-12.5 72,-6.5 78,-0.5 84,-0.5"/>
<text xml:space="preserve" text-anchor="middle" x="98.88" y="-13.82" font-family="Times,serif" font-size="14.00">F</text>
</g>
<!-- 4&#45;&gt;5 -->
<g id="edge7" class="edge">
<title>4-&gt;5</title>
<path fill="none" stroke="black" d="M99,-90.31C99,-78.23 99,-61.86 99,-47.91"/>
<polygon fill="black" stroke="black" points="99,-38.12 103.5,-48.12 99,-41.9 99,-48.12 99,-48.12 99,-48.12 99,-41.9 94.5,-48.12 99,-38.12"/>
<text xml:space="preserve" text-anchor="middle" x="115.12" y="-58.95" font-family="Times,serif" font-size="14.00">E→F</text>
</g>
</g>
</svg>