<svg xmlns="http://www.w3.org/2000/svg" xmlns:xlink="http://www.w3.org/1999/xlink" width="206pt" height="45pt" viewBox="0.00 0.00 206.00 45.00">
<g id="graph0" class="graph" transform="scale(1 1) rotate(0) translate(4 41)">
<polygon fill="white" stroke="none" points="-4,4 -4,-41 202,-41 202,4 -4,4"/>
<!-- 0 -->
<g id="node1" class="node">
<title>0</title>
<path fill="#99ccff" stroke="black" d="M12,-0.5C12,-0.5 42,-0.5 42,-0.5 48,-0.5 54,-6.5 54,-12.5 54,-12.5 54,-24.5 54,-24.5 54,-30.5 48,-36.5 42,-36.5 42,-36.5 12,-36.5 12,-36.5 6,-36.5 0,-30.5 0,-24.5 0,-24.5 0,-12.5 0,-12.5 0,-6.5 6,-0.5 12,-0.5"/>
<text xml:space="preserve" text-anchor="middle" x="27" y="-13.82" font-family="Times,serif" font-size="14.00">0</text>
</g>
<!-- 1 -->
<g id="node2" class="node">
<title>1</title>
<path fill="#99ccff" stroke="black" d="M84,-0.5C84,-0.5 114,-0.5 114,-0.5 120,-0.5 126,-6.5 126,-12.5 126,-12.5 126,-24.5 126,-24.5 126,-30.5 120,-36.5 114,-36.5 114,-36.5 84,-36.5 84,-36.5 78,-36.5 72,-30.5 72,-24.5 72,-24.5 72,-12.5 72,-12.5 72,-6.5 78,-0.5 84,-0.5"/>
<text xml:space="preserve" text-anchor="middle" x="99" y="-13.82" font-family="Times,serif" font-size="14.00">1</text>
</g>
<!-- 2 -->
<g id="node3" class="node">
<title>2</title>
<path fill="#99ccff" stroke="black" d="M156,-0.5C156,-0.5 186,-0.5 186,-0.5 192,-0.5 198,-6.5 198,-12.5 198,-12.5 198,-24.5 198,-24.5 198,-30.5 192,-36.5 186,-36.5 186,-36.5 156,-36.5 156,-36.5 150,-36.5 144,-30.5 144,-24.5 144,-24.5 144,-12.5 144,-12.5 144,-6.5 150,-0.5 156,-0.5"/>
<text xml:space="preserve" text-anchor="middle" x="171" y="-13.82" font-family="Times,serif" font-size="14.00">2</text>
</g>
</g>
</svg>