<svg xmlns="http://www.w3.org/2000/svg" xmlns:xlink="http://www.w3.org/1999/xlink" width="206pt" height="191pt" viewBox="0.00 0.00 206.00 191.00">
<g id="graph0" class="graph" transform="scale(1 1) rotate(0) translate(4 187)">
<polygon fill="white" stroke="none" points="-4,4 -4,-187 202,-187 202,4 -4,4"/>
<!-- 0 -->
<g id="node1" class="node">
<title>0</title>
<path fill="#99ccff" stroke="black" d="M84,-146.5C84,-146.5 114,-146.5 114,-146.5 120,-146.5 126,-152.5 126,-158.5 126,-158.5 126,-170.5 126,-170.5 126,-176.5 120,-182.5 114,-182.5 114,-182.5 84,-182.5 84,-182.5 78,-182.5 72,-176.5 72,-170.5 72,-170.5 72,-158.5 72,-158.5 72,-152.5 78,-146.5 84,-146.5"/>
<text xml:space="preserve" text-anchor="middle" x="99" y="-159.82" font-family="Times,serif" font-size="14.00">0</text>
</g>
<!-- 1 -->
<g id="node2" class="node">
<title>1</title>
<path fill="#99ccff" stroke="black" d="M12,-73.5C12,-73.5 42,-73.5 42,-73.5 48,-73.5 54,-79.5 54,-85.5 54,-85.5 54,-97.5 54,-97.5 54,-103.5 48,-109.5 42,-109.5 42,-109.5 12,-109.5 12,-109.5 6,-109.5 0,-103.5 0,-97.5 0,-97.5 0,-85.5 0,-85.5 0,-79.5 6,-73.5 12,-73.5"/>
<text xml:space="preserve" text-anchor="middle" x="27" y="-86.83" font-family="Times,serif" font-size="14.00">1</text>
</g>
<!-- 0&#45;&gt;1 -->
<g id="edge1" class="edge">
<title>0-&gt;1</title>
<path fill="none" stroke="#777777" d="M81.57,-146.31C72.79,-137.66 61.98,-127 52.31,-117.46"/>
<polygon fill="#777777" stroke="#777777" points="45.39,-110.63 55.67,-114.45 48.08,-113.29 52.51,-117.65 52.51,-117.65 52.51,-117.65 48.08,-113.29 49.35,-120.86 45.39,-110.63"/>
</g>
<!-- 2 -->
<g id="node3" class="node">
<title>2</title>
<path fill="#99ccff" stroke="black" d="M84,-73.5C84,-73.5 114,-73.5 114,-73.5 120,-73.5 126,-79.5 126,-85.5 126,-85.5 126,-97.5 126,-97.5 126,-103.5 120,-109.5 114,-109.5 114,-109.5 84,-109.5 84,-109.5 78,-109.5 72,-103.5 72,-97.5 72,-97.5 72,-85.5 72,-85.5 72,-79.5 78,-73.5 84,-73.5"/>
<text xml:space="preserve" text-anchor="middle" x="99" y="-86.83" font-family="Times,serif" font-size="14.00">2</text>
</g>
<!-- 0&#45;&gt;2 -->
<g id="edge2" class="edge">
<title>0-&gt;2</title>
<path fill="none" stroke="#777777" d="M99,-146.31C99,-138.64 99,-129.39 99,-120.74"/>
<polygon fill="#777777" stroke="#777777" points="99,-110.75 103.5,-120.75 99,-114.53 99,-120.75 99,-120.75 99,-120.75 99,-114.53 94.5,-120.75 99,-110.75"/>
</g>
<!-- 3 -->
<g id="node4" class="node">
<title>3</title>
<path fill="#99ccff" stroke="black" d="M156,-73.5C156,-73.5 186,-73.5 186,-73.5 192,-73.5 198,-79.5 198,-85.5 198,-85.5 198,-97.5 198,-97.5 198,-103.5 192,-109.5 186,-109.5 186,-109.5 156,-109.5 156,-109.5 150,-109.5 144,-103.5 144,-97.5 144,-97.5 144,-85.5 144,-85.5 144,-79.5 150,-73.5 156,-73.5"/>
<text xml:space="preserve" text-anchor="middle" x="171" y="-86.83" font-family="Times,serif" font-size="14.00">3</text>
</g>
<!-- 0&#45;&gt;3 -->
<g id="edge3" class="edge">
<title>0-&gt;3</title>
<path fill="none" stroke="#777777" d="M116.43,-146.31C125.21,-137.66 136.02,-127 145.69,-117.46"/>
<polygon fill="#777777" stroke="#777777" points="152.61,-110.63 148.65,-120.86 149.92,-113.29 145.49,-117.65 145.49,-117.65 145.49,-117.65 149.92,-113.29 142.33,-114.45 152.61,-110.63"/>
</g>
<!-- 4 -->
<g id="node5" class="node">
<title>4</title>
<path fill="#99ccff" stroke="black" d="M84,-0.5C84,-0.5 114,-0.5 114,-0.5 120,-0.5 126,-6.5 126,-12.5 126,-12.5 126,-24.5 126,-24.5 126,-30.5 120,-36.5 114,-36.5 114,-36.5 84,-36.5 84,-36.5 78,-36.5 72,-30.5 72,-24.5 72,-24.5 72,-12.5 72,-12.5 72,-6.5 78,-0.5 84,-0.5"/>
<text xml:space="preserve" text-anchor="middle" x="99" y="-13.82" font-family="Times,serif" font-size="14.00">4</text>
</g>
<!-- 1&#45;&gt;4 -->
<g id="edge4" class="edge">
<title>1-&gt;4</title>
<path fill="none" stroke="#777777" d="M44.43,-73.31C53.21,-64.66 64.02,-54 73.69,-44.46"/>
<polygon fill="#777777" stroke="#777777" points="80.61,-37.63 76.65,-47.86 77.92,-40.29 73.49,-44.65 73.49,-44.65 73.49,-44.65 77.92,-40.29 70.33,-41.45 80.61,-37.63"/>
</g>
<!-- 2&#45;&gt;4 -->
<g id="edge5" class="edge">
<title>2-&gt;4</title>
<path fill="none" stroke="#777777" d="M99,-73.31C99,-65.64 99,-56.39 99,-47.74"/>
<polygon fill="#777777" stroke="#777777" points="99,-37.75 103.5,-47.75 99,-41.53 99,-47.75 99,-47.75 99,-47.75 99,-41.53 94.5,-47.75 99,-37.75"/>
</g>
<!-- 3&#45;&gt;4 -->
<g id="edge6" class="edge">
<title>3-&gt;4</title>
<path fill="none" stroke="#777777" d="M153.57,-73.31C144.79,-64.66 133.98,-54 124.31,-44.46"/>
<polygon fill="#777777" stroke="#777777" points="117.39,-37.63 127.67,-41.45 120.08,-40.29 124.51,-44.65 124.51,-44.65 124.51,-44.65 120.08,-40.29 121.35,-47.86 117.39,-37.63"/>
</g>
</g>
</svg>