<svg xmlns="http://www.w3.org/2000/svg" xmlns:xlink="http://www.w3.org/1999/xlink" width="412pt" height="374pt" viewBox="0.00 0.00 412.00 374.00">
<g id="graph0" class="graph" transform="scale(1 1) rotate(0) translate(4 369.75)">
<polygon fill="white" stroke="none" points="-4,4 -4,-369.75 407.62,-369.75 407.62,4 -4,4"/>
<!-- 0 -->
<g id="node1" class="node">
<title>0</title>
<path fill="#99ccff" stroke="black" d="M152.38,-314.75C152.38,-314.75 249.88,-314.75 249.88,-314.75 255.88,-314.75 261.88,-320.75 261.88,-326.75 261.88,-326.75 261.88,-353.25 261.88,-353.25 261.88,-359.25 255.88,-365.25 249.88,-365.25 249.88,-365.25 152.38,-365.25 152.38,-365.25 146.38,-365.25 140.38,-359.25 140.38,-353.25 140.38,-353.25 140.38,-326.75 140.38,-326.75 140.38,-320.75 146.38,-314.75 152.38,-314.75"/>
<text xml:space="preserve" text-anchor="middle" x="153.25" y="-335.32" font-family="Times,serif" font-size="14.00">A</text>
<polyline fill="none" stroke="black" points="166.12,-314.75 166.12,-365.25"/>
<text xml:space="preserve" text-anchor="middle" x="192.5" y="-347.95" font-family="Times,serif" font-size="14.00">in:0</text>
<polyline fill="none" stroke="black" points="166.12,-340 218.88,-340"/>
<text xml:space="preserve" text-anchor="middle" x="192.5" y="-322.7" font-family="Times,serif" font-size="14.00">out:3</text>
<polyline fill="none" stroke="black" points="218.88,-314.75 218.88,-365.25"/>
<text xml:space="preserve" text-anchor="middle" x="240.38" y="-335.32" font-family="Times,serif" font-size="14.00">id:0</text>
</g>
<!-- 1 -->
<g id="node2" class="node">
<title>1</title>
<path fill="#99ccff" stroke="black" d="M12,-210C12,-210 110.25,-210 110.25,-210 116.25,-210 122.25,-216 122.25,-222 122.25,-222 122.25,-248.5 122.25,-248.5 122.25,-254.5 116.25,-260.5 110.25,-260.5 110.25,-260.5 12,-260.5 12,-260.5 6,-260.5 0,-254.5 0,-248.5 0,-248.5 0,-222 0,-222 0,-216 6,-210 12,-210"/>
<text xml:space="preserve" text-anchor="middle" x="13.25" y="-230.57" font-family="Times,serif" font-size="14.00">B</text>
<polyline fill="none" stroke="black" points="26.5,-210 26.5,-260.5"/>
<text xml:space="preserve" text-anchor="middle" x="52.88" y="-243.2" font-family="Times,serif" font-size="14.00">in:1</text>
<polyline fill="none" stroke="black" points="26.5,-235.25 79.25,-235.25"/>
<text xml:space="preserve" text-anchor="middle" x="52.88" y="-217.95" font-family="Times,serif" font-size="14.00">out:1</text>
<polyline fill="none" stroke="black" points="79.25,-210 79.25,-260.5"/>
<text xml:space="preserve" text-anchor="middle" x="100.75" y="-230.57" font-family="Times,serif" font-size="14.00">id:1</text>
</g>
<!-- 0&#45;&gt;1 -->
<g id="edge1" class="edge">
<title>0-&gt;1</title>
<path fill="none" stroke="black" d="M167.59,-314.39C148.28,-300.22 123.84,-282.28 103.25,-267.16"/>
<polygon fill="black" stroke="black" points="95.37,-261.38 106.09,-263.67 98.42,-263.62 103.43,-267.3 103.43,-267.3 103.43,-267.3 98.42,-263.62 100.77,-270.93 95.37,-261.38"/>
<text xml:space="preserve" text-anchor="middle" x="155.63" y="-282.95" font-family="Times,serif" font-size="14.00">A→B</text>
</g>
<!-- 2 -->
<g id="node3" class="node">
<title>2</title>
<path fill="#99ccff" stroke="black" d="M152,-210C152,-210 250.25,-210 250.25,-210 256.25,-210 262.25,-216 262.25,-222 262.25,-222 262.25,-248.5 262.25,-248.5 262.25,-254.5 256.25,-260.5 250.25,-260.5 250.25,-260.5 152,-260.5 152,-260.5 146,-260.5 140,-254.5 140,-248.5 140,-248.5 140,-222 140,-222 140,-216 146,-210 152,-210"/>
<text xml:space="preserve" text-anchor="middle" x="153.25" y="-230.57" font-family="Times,serif" font-size="14.00">C</text>
<polyline fill="none" stroke="black" points="166.5,-210 166.5,-260.5"/>
<text xml:space="preserve" text-anchor="middle" x="192.88" y="-243.2" font-family="Times,serif" font-size="14.00">in:1</text>
<polyline fill="none" stroke="black" points="166.5,-235.25 219.25,-235.25"/>
<text xml:space="preserve" text-anchor="middle" x="192.88" y="-217.95" font-family="Times,serif" font-size="14.00">out:1</text>
<polyline fill="none" stroke="black" points="219.25,-210 219.25,-260.5"/>
<text xml:space="preserve" text-anchor="middle" x="240.75" y="-230.57" font-family="Times,serif" font-size="14.00">id:2</text>
</g>
<!-- 0&#45;&gt;2 -->
<g id="edge2" class="edge">
<title>0-&gt;2</title>
<path fill="none" stroke="black" d="M201.12,-314.39C201.12,-301.55 201.12,-285.62 201.12,-271.5"/>
<polygon fill="black" stroke="black" points="201.13,-261.88 205.63,-271.88 201.13,-265.66 201.13,-271.88 201.13,-271.88 201.13,-271.88 201.13,-265.66 196.63,-271.88 201.13,-261.88"/>
<text xml:space="preserve" text-anchor="middle" x="217.25" y="-282.95" font-family="Times,serif" font-size="14.00">A→C</text>
</g>
<!-- 3 -->
<g id="node4" class="node">
<title>3</title>
<path fill="#99ccff" stroke="black" d="M292.62,-210C292.62,-210 391.62,-210 391.62,-210 397.62,-210 403.62,-216 403.62,-222 403.62,-222 403.62,-248.5 403.62,-248.5 403.62,-254.5 397.62,-260.5 391.62,-260.5 391.62,-260.5 292.62,-260.5 292.62,-260.5 286.62,-260.5 280.62,-254.5 280.62,-248.5 280.62,-248.5 280.62,-222 280.62,-222 280.62,-216 286.62,-210 292.62,-210"/>
<text xml:space="preserve" text-anchor="middle" x="294.25" y="-230.57" font-family="Times,serif" font-size="14.00">D</text>
<polyline fill="none" stroke="black" points="307.88,-210 307.88,-260.5"/>
<text xml:space="preserve" text-anchor="middle" x="334.25" y="-243.2" font-family="Times,serif" font-size="14.00">in:1</text>
<polyline fill="none" stroke="black" points="307.88,-235.25 360.62,-235.25"/>
<text xml:space="preserve" text-anchor="middle" x="334.25" y="-217.95" font-family="Times,serif" font-size="14.00">out:1</text>
<polyline fill="none" stroke="black" points="360.62,-210 360.62,-260.5"/>
<text xml:space="preserve" text-anchor="middle" x="382.12" y="-230.57" font-family="Times,serif" font-size="14.00">id:3</text>
</g>
<!-- 0&#45;&gt;3 -->
<g id="edge3" class="edge">
<title>0-&gt;3</title>
<path fill="none" stroke="black" d="M234.9,-314.39C254.34,-300.22 278.96,-282.28 299.7,-267.16"/>
<polygon fill="black" stroke="black" points="307.64,-261.38 302.21,-270.9 304.59,-263.61 299.56,-267.27 299.56,-267.27 299.56,-267.27 304.59,-263.61 296.91,-263.63 307.64,-261.38"/>
<text xml:space="preserve" text-anchor="middle" x="296.57" y="-282.95" font-family="Times,serif" font-size="14.00">A→D</text>
</g>
<!-- 4 -->
<g id="node5" class="node">
<title>4</title>
<path fill="#99ccff" stroke="black" d="M152,-105.25C152,-105.25 250.25,-105.25 250.25,-105.25 256.25,-105.25 262.25,-111.25 262.25,-117.25 262.25,-117.25 262.25,-143.75 262.25,-143.75 262.25,-149.75 256.25,-155.75 250.25,-155.75 250.25,-155.75 152,-155.75 152,-155.75 146,-155.75 140,-149.75 140,-143.75 140,-143.75 140,-117.25 140,-117.25 140,-111.25 146,-105.25 152,-105.25"/>
<text xml:space="preserve" text-anchor="middle" x="153.25" y="-125.83" font-family="Times,serif" font-size="14.00">E</text>
<polyline fill="none" stroke="black" points="166.5,-105.25 166.5,-155.75"/>
<text xml:space="preserve" text-anchor="middle" x="192.88" y="-138.45" font-family="Times,serif" font-size="14.00">in:3</text>
<polyline fill="none" stroke="black" points="166.5,-130.5 219.25,-130.5"/>
<text xml:space="preserve" text-anchor="middle" x="192.88" y="-113.2" font-family="Times,serif" font-size="14.00">out:1</text>
<polyline fill="none" stroke="black" points="219.25,-105.25 219.25,-155.75"/>
<text xml:space="preserve" text-anchor="middle" x="240.75" y="-125.83" font-family="Times,serif" font-size="14.00">id:4</text>
</g>
<!-- 1&#45;&gt;4 -->
<g id="edge4" class="edge">
<title>1-&gt;4</title>
<path fill="none" stroke="black" d="M94.66,-209.64C113.97,-195.47 138.41,-177.53 159,-162.41"/>
<polygon fill="black" stroke="black" points="166.88,-156.63 161.48,-166.18 163.83,-158.87 158.82,-162.55 158.82,-162.55 158.82,-162.55 163.83,-158.87 156.16,-158.92 166.88,-156.63"/>
<text xml:space="preserve" text-anchor="middle" x="156.01" y="-178.2" font-family="Times,serif" font-size="14.00">B→E</text>
</g>
<!-- 2&#45;&gt;4 -->
<g id="edge5" class="edge">
<title>2-&gt;4</title>
<path fill="none" stroke="black" d="M201.12,-209.64C201.12,-196.8 201.12,-180.87 201.12,-166.75"/>
<polygon fill="black" stroke="black" points="201.13,-157.13 205.63,-167.13 201.13,-160.91 201.13,-167.13 201.13,-167.13 201.13,-167.13 201.13,-160.91 196.63,-167.13 201.13,-157.13"/>
<text xml:space="preserve" text-anchor="middle" x="217.62" y="-178.2" font-family="Times,serif" font-size="14.00">C→E</text>
</g>
<!-- 3&#45;&gt;4 -->
<g id="edge6" class="edge">
<title>3-&gt;4</title>
<path fill="none" stroke="black" d="M308.35,-209.64C288.91,-195.47 264.29,-177.53 243.55,-162.41"/>
<polygon fill="black" stroke="black" points="235.61,-156.63 246.34,-158.88 238.66,-158.86 243.69,-162.52 243.69,-162.52 243.69,-162.52 238.66,-158.86 241.04,-166.15 235.61,-156.63"/>
<text xml:space="preserve" text-anchor="middle" x="296.94" y="-178.2" font-family="Times,serif" font-size="14.00">D→E</text>
</g>
<!-- 5 -->
<g id="node6" class="node">
<title>5</title>
<path fill="#99ccff" stroke="black" d="M152.38,-0.5C152.38,-0.5 249.88,-0.5 249.88,-0.5 255.88,-0.5 261.88,-6.5 261.88,-12.5 261.88,-12.5 261.88,-39 261.88,-39 261.88,-45 255.88,-51 249.88,-51 249.88,-51 152.38,-51 152.38,-51 146.38,-51 140.38,-45 140.38,-39 140.38,-39 140.38,-12.5 140.38,-12.5 140.38,-6.5 146.38,-0.5 152.38,-0.5"/>
<text xml:space="preserve" text-anchor="middle" x="153.25" y="-21.07" font-family="Times,serif" font-size="14.00">F</text>
<polyline fill="none" stroke="black" points="166.12,-0.5 166.12,-51"/>
<text xml:space="preserve" text-anchor="middle" x="192.5" y="-33.7" font-family="Times,serif" font-size="14.00">in:1</text>
<polyline fill="none" stroke="black" points="166.12,-25.75 218.88,-25.75"/>
<text xml:space="preserve" text-anchor="middle" x="192.5" y="-8.45" font-family="Times,serif" font-size="14.00">out:0</text>
<polyline fill="none" stroke="black" points="218.88,-0.5 218.88,-51"/>
<text xml:space="preserve" text-anchor="middle" x="240.38" y="-21.07" font-family="Times,serif" font-size="14.00">id:5</text>
</g>
<!-- 4&#45;&gt;5 -->
<g id="edge7" class="edge">
<title>4-&gt;5</title>
<path fill="none" stroke="black" d="M201.12,-104.89C201.12,-92.05 201.12,-76.12 201.12,-62"/>
<polygon fill="black" stroke="black" points="201.13,-52.38 205.63,-62.38 201.13,-56.16 201.13,-62.38 201.13,-62.38 201.13,-62.38 201.13,-56.16 196.63,-62.38 201.13,-52.38"/>
<text xml:space="preserve" text-anchor="middle" x="217.25" y="-73.45" font-family="Times,serif" font-size="14.00">E→F</text>
</g>
</g>
</svg>