<svg xmlns="http://www.w3.org/2000/svg" xmlns:xlink="http://www.w3.org/1999/xlink" width="206pt" height="264pt" viewBox="0.00 0.00 206.00 264.00">
<g id="graph0" class="graph" transform="scale(1 1) rotate(0) translate(4 260)">
<polygon fill="white" stroke="none" points="-4,4 -4,-260 202,-260 202,4 -4,4"/>
<!-- 0 -->
<g id="node1" class="node">
<title>0</title>
<path fill="#99ccff" stroke="black" d="M84,-219.5C84,-219.5 114,-219.5 114,-219.5 120,-219.5 126,-225.5 126,-231.5 126,-231.5 126,-243.5 126,-243.5 126,-249.5 120,-255.5 114,-255.5 114,-255.5 84,-255.5 84,-255.5 78,-255.5 72,-249.5 72,-243.5 72,-243.5 72,-231.5 72,-231.5 72,-225.5 78,-219.5 84,-219.5"/>
<text xml:space="preserve" text-anchor="middle" x="99" y="-232.82" font-family="Times,serif" font-size="14.00">0</text>
</g>
<!-- 1 -->
<g id="node2" class="node">
<title>1</title>
<path fill="#99ccff" stroke="black" d="M12,-146.5C12,-146.5 42,-146.5 42,-146.5 48,-146.5 54,-152.5 54,-158.5 54,-158.5 54,-170.5 54,-170.5 54,-176.5 48,-182.5 42,-182.5 42,-182.5 12,-182.5 12,-182.5 6,-182.5 0,-176.5 0,-170.5 0,-170.5 0,-158.5 0,-158.5 0,-152.5 6,-146.5 12,-146.5"/>
<text xml:space="preserve" text-anchor="middle" x="27" y="-159.82" font-family="Times,serif" font-size="14.00">1</text>
</g>
<!-- 0&#45;&gt;1 -->
<g id="edge1" class="edge">
<title>0-&gt;1</title>
<path fill="none" stroke="red" stroke-width="3" d="M81.57,-219.31C73.32,-211.18 63.27,-201.27 54.06,-192.19"/>
<polygon fill="red" stroke="red" stroke-width="3" points="47.12,-185.34 57.4,-189.16 48.78,-185.57 54.94,-191.65 54.24,-192.36 53.54,-193.07 47.38,-187 51.08,-195.57 47.12,-185.34"/>
</g>
<!-- 2 -->
<g id="node3" class="node">
<title>2</title>
<path fill="#99ccff" stroke="black" d="M84,-146.5C84,-146.5 114,-146.5 114,-146.5 120,-146.5 126,-152.5 126,-158.5 126,-158.5 126,-170.5 126,-170.5 126,-176.5 120,-182.5 114,-182.5 114,-182.5 84,-182.5 84,-182.5 78,-182.5 72,-176.5 72,-170.5 72,-170.5 72,-158.5 72,-158.5 72,-152.5 78,-146.5 84,-146.5"/>
<text xml:space="preserve" text-anchor="middle" x="99" y="-159.82" font-family="Times,serif" font-size="14.00">2</text>
</g>
<!-- 0&#45;&gt;2 -->
<g id="edge2" class="edge">
<title>0-&gt;2</title>
<path fill="none" stroke="red" stroke-width="3" d="M99,-219.31C99,-212.34 99,-204.06 99,-196.12"/>
<polygon fill="red" stroke="red" stroke-width="3" points="99,-186.18 103.5,-196.18 100,-187.53 100,-196.18 99,-196.18 98,-196.18 98,-187.53 94.5,-196.18 99,-186.18"/>
</g>
<!-- 3 -->
<g id="node4" class="node">
<title>3</title>
<path fill="#99ccff" stroke="black" d="M156,-146.5C156,-146.5 186,-146.5 186,-146.5 192,-146.5 198,-152.5 198,-158.5 198,-158.5 198,-170.5 198,-170.5 198,-176.5 192,-182.5 186,-182.5 186,-182.5 156,-182.5 156,-182.5 150,-182.5 144,-176.5 144,-170.5 144,-170.5 144,-158.5 144,-158.5 144,-152.5 150,-146.5 156,-146.5"/>
<text xml:space="preserve" text-anchor="middle" x="171" y="-159.82" font-family="Times,serif" font-size="14.00">3</text>
</g>
<!-- 0&#45;&gt;3 -->
<g id="edge3" class="edge">
<title>0-&gt;3</title>
<path fill="none" stroke="red" stroke-width="3" d="M116.43,-219.31C124.68,-211.18 134.73,-201.27 143.94,-192.19"/>
<polygon fill="red" stroke="red" stroke-width="3" points="150.88,-185.34 146.92,-195.57 150.62,-187 144.46,-193.07 143.76,-192.36 143.06,-191.65 149.22,-185.57 140.6,-189.16 150.88,-185.34"/>
</g>
<!-- 4 -->
<g id="node5" class="node">
<title>4</title>
<path fill="#99ccff" stroke="black" d="M84,-73.5C84,-73.5 114,-73.5 114,-73.5 120,-73.5 126,-79.5 126,-85.5 126,-85.5 126,-97.5 126,-97.5 126,-103.5 120,-109.5 114,-109.5 114,-109.5 84,-109.5 84,-109.5 78,-109.5 72,-103.5 72,-97.5 72,-97.5 72,-85.5 72,-85.5 72,-79.5 78,-73.5 84,-73.5"/>
<text xml:space="preserve" text-anchor="middle" x="99" y="-86.83" font-family="Times,serif" font-size="14.00">4</text>
</g>
<!-- 1&#45;&gt;4 -->
<g id="edge4" class="edge">
<title>1-&gt;4</title>
<path fill="none" stroke="red" stroke-width="3" d="M44.43,-146.31C52.68,-138.18 62.73,-128.27 71.94,-119.19"/>
<polygon fill="red" stroke="red" stroke-width="3" points="78.88,-112.34 74.92,-122.57 78.62,-114 72.46,-120.07 71.76,-119.36 71.06,-118.65 77.22,-112.57 68.6,-116.16 78.88,-112.34"/>
</g>
<!-- 2&#45;&gt;4 -->
<g id="edge5" class="edge">
<title>2-&gt;4</title>
<path fill="none" stroke="red" stroke-width="3" d="M99,-146.31C99,-139.34 99,-131.06 99,-123.12"/>
<polygon fill="red" stroke="red" stroke-width="3" points="99,-113.18 103.5,-123.18 100,-114.53 100,-123.18 99,-123.18 98,-123.18 98,-114.53 94.5,-123.18 99,-113.18"/>
</g>
<!-- 3&#45;&gt;4 -->
<g id="edge6" class="edge">
<title>3-&gt;4</title>
<path fill="none" stroke="red" stroke-width="3" d="M153.57,-146.31C145.32,-138.18 135.27,-128.27 126.06,-119.19"/>
<polygon fill="red" stroke="red" stroke-width="3" points="119.12,-112.34 129.4,-116.16 120.78,-112.57 126.94,-118.65 126.24,-119.36 125.54,-120.07 119.38,-114 123.08,-122.57 119.12,-112.34"/>
</g>
<!-- 5 -->
<g id="node6" class="node">
<title>5</title>
<path fill="#99ccff" stroke="black" d="M84,-0.5C84,-0.5 114,-0.5 114,-0.5 120,-0.5 126,-6.5 126,-12.5 126,-12.5 126,-24.5 126,-24.5 126,-30.5 120,-36.5 114,-36.5 114,-36.5 84,-36.5 84,-36.5 78,-36.5 72,-30.5 72,-24.5 72,-24.5 72,-12.5 72,-12.5 72,-6.5 78,-0.5 84,-0.5"/>
<text xml:space="preserve" text-anchor="middle" x="99" y="-13.82" font-family="Times,serif" font-size="14.00">5</text>
</g>
<!-- 4&#45;&gt;5 -->
<g id="edge7" class="edge">
<title>4-&gt;5</title>
<path fill="none" stroke="red" stroke-width="3" d="M99,-73.31C99,-66.34 99,-58.06 99,-50.12"/>
<polygon fill="red" stroke="red" stroke-width="3" points="99,-40.18 103.5,-50.18 100,-41.53 100,-50.18 99,-50.18 98,-50.18 98,-41.53 94.5,-50.18 99,-40.18"/>
</g>
</g>
</svg>