<svg xmlns="http://www.w3.org/2000/svg" xmlns:xlink="http://www.w3.org/1999/xlink" width="134pt" height="191pt" viewBox="0.00 0.00 134.00 191.00">
<g id="graph0" class="graph" transform="scale(1 1) rotate(0) translate(4 187)">
<polygon fill="white" stroke="none" points="-4,4 -4,-187 130,-187 130,4 -4,4"/>
<!-- 0 -->
<g id="node1" class="node">
<title>0</title>
<path fill="#99ccff" stroke="black" d="M48,-146.5C48,-146.5 78,-146.5 78,-146.5 84,-146.5 90,-152.5 90,-158.5 90,-158.5 90,-170.5 90,-170.5 90,-176.5 84,-182.5 78,-182.5 78,-182.5 48,-182.5 48,-182.5 42,-182.5 36,-176.5 36,-170.5 36,-170.5 36,-158.5 36,-158.5 36,-152.5 42,-146.5 48,-146.5"/>
<text xml:space="preserve" text-anchor="middle" x="63" y="-159.82" font-family="Times,serif" font-size="14.00">0</text>
</g>
<!-- 1 -->
<g id="node2" class="node">
<title>1</title>
<path fill="#99ccff" stroke="black" d="M12,-73.5C12,-73.5 42,-73.5 42,-73.5 48,-73.5 54,-79.5 54,-85.5 54,-85.5 54,-97.5 54,-97.5 54,-103.5 48,-109.5 42,-109.5 42,-109.5 12,-109.5 12,-109.5 6,-109.5 0,-103.5 0,-97.5 0,-97.5 0,-85.5 0,-85.5 0,-79.5 6,-73.5 12,-73.5"/>
<text xml:space="preserve" text-anchor="middle" x="27" y="-86.83" font-family="Times,serif" font-size="14.00">1</text>
</g>
<!-- 0&#45;&gt;1 -->
<g id="edge1" class="edge">
<title>0-&gt;1</title>
<path fill="none" stroke="#777777" d="M54.29,-146.31C50.17,-138.2 45.17,-128.34 40.58,-119.28"/>
<polygon fill="#777777" stroke="#777777" points="36.19,-110.62 44.72,-117.5 37.9,-113.99 40.71,-119.53 40.71,-119.53 40.71,-119.53 37.9,-113.99 36.69,-121.57 36.19,-110.62"/>
</g>
<!-- 2 -->
<g id="node3" class="node">
<title>2</title>
<path fill="#99ccff" stroke="black" d="M84,-73.5C84,-73.5 114,-73.5 114,-73.5 120,-73.5 126,-79.5 126,-85.5 126,-85.5 126,-97.5 126,-97.5 126,-103.5 120,-109.5 114,-109.5 114,-109.5 84,-109.5 84,-109.5 78,-109.5 72,-103.5 72,-97.5 72,-97.5 72,-85.5 72,-85.5 72,-79.5 78,-73.5 84,-73.5"/>
<text xml:space="preserve" text-anchor="middle" x="99" y="-86.83" font-family="Times,serif" font-size="14.00">2</text>
</g>
<!-- 0&#45;&gt;2 -->
<g id="edge2" class="edge">
<title>0-&gt;2</title>
<path fill="none" stroke="#777777" d="M71.71,-146.31C75.83,-138.2 80.83,-128.34 85.42,-119.28"/>
<polygon fill="#777777" stroke="#777777" points="89.81,-110.62 89.31,-121.57 88.1,-113.99 85.29,-119.53 85.29,-119.53 85.29,-119.53 88.1,-113.99 81.28,-117.5 89.81,-110.62"/>
</g>
<!-- 3 -->
<g id="node4" class="node">
<title>3</title>
<path fill="#99ccff" stroke="black" d="M48,-0.5C48,-0.5 78,-0.5 78,-0.5 84,-0.5 90,-6.5 90,-12.5 90,-12.5 90,-24.5 90,-24.5 90,-30.5 84,-36.5 78,-36.5 78,-36.5 48,-36.5 48,-36.5 42,-36.5 36,-30.5 36,-24.5 36,-24.5 36,-12.5 36,-12.5 36,-6.5 42,-0.5 48,-0.5"/>
<text xml:space="preserve" text-anchor="middle" x="63" y="-13.82" font-family="Times,serif" font-size="14.00">3</text>
</g>
<!-- 1&#45;&gt;3 -->
<g id="edge3" class="edge">
<title>1-&gt;3</title>
<path fill="none" stroke="#777777" d="M35.71,-73.31C39.83,-65.2 44.83,-55.34 49.42,-46.28"/>
<polygon fill="#777777" stroke="#777777" points="53.81,-37.62 53.31,-48.57 52.1,-40.99 49.29,-46.53 49.29,-46.53 49.29,-46.53 52.1,-40.99 45.28,-44.5 53.81,-37.62"/>
</g>
<!-- 2&#45;&gt;3 -->
<g id="edge4" class="edge">
<title>2-&gt;3</title>
<path fill="none" stroke="#777777" d="M90.29,-73.31C86.17,-65.2 81.17,-55.34 76.58,-46.28"/>
<polygon fill="#777777" stroke="#777777" points="72.19,-37.62 80.72,-44.5 73.9,-40.99 76.71,-46.53 76.71,-46.53 76.71,-46.53 73.9,-40.99 72.69,-48.57 72.19,-37.62"/>
</g>
</g>
</svg>