<svg xmlns="http://www.w3.org/2000/svg" xmlns:xlink="http://www.w3.org/1999/xlink" width="134pt" height="116pt" viewBox="0.00 0.00 134.00 116.00">
<g id="graph0" class="graph" transform="scale(1 1) rotate(0) translate(4 112)">
<polygon fill="white" stroke="none" points="-4,4 -4,-112 130,-112 130,4 -4,4"/>
<!-- 0 -->
<g id="node1" class="node">
<title>0</title>
<polygon fill="#ffd39b" stroke="black" points="54,-108 0,-108 0,-104 -4,-104 -4,-100 0,-100 0,-80 -4,-80 -4,-76 0,-76 0,-72 54,-72 54,-108"/>
<polyline fill="none" stroke="black" points="0,-104 4,-104 4,-100 0,-100"/>
<polyline fill="none" stroke="black" points="0,-80 4,-80 4,-76 0,-76"/>
<text xml:space="preserve" text-anchor="start" x="12.38" y="-86.33" font-family="Times,serif" font-weight="bold" font-size="14.00">A:</text>
<text xml:space="preserve" text-anchor="start" x="28.12" y="-86.33" font-family="Times,serif" font-size="14.00">0 </text>
</g>
<!-- 2 -->
<g id="node3" class="node">
<title>2</title>
<polygon fill="#ffd39b" stroke="black" points="90,-36 36,-36 36,-32 32,-32 32,-28 36,-28 36,-8 32,-8 32,-4 36,-4 36,0 90,0 90,-36"/>
<polyline fill="none" stroke="black" points="36,-32 40,-32 40,-28 36,-28"/>
<polyline fill="none" stroke="black" points="36,-8 40,-8 40,-4 36,-4"/>
<text xml:space="preserve" text-anchor="start" x="48" y="-14.32" font-family="Times,serif" font-weight="bold" font-size="14.00">C:</text>
<text xml:space="preserve" text-anchor="start" x="64.5" y="-14.32" font-family="Times,serif" font-size="14.00">2 </text>
</g>
<!-- 0&#45;&gt;2 -->
<g id="edge1" class="edge">
<title>0-&gt;2</title>
<path fill="none" stroke="#777777" d="M35.9,-71.7C39.91,-63.9 44.74,-54.51 49.2,-45.83"/>
<polygon fill="#777777" stroke="#777777" points="53.65,-37.19 53.07,-48.14 51.92,-40.55 49.07,-46.08 49.07,-46.08 49.07,-46.08 51.92,-40.55 45.07,-44.02 53.65,-37.19"/>
</g>
<!-- 1 -->
<g id="node2" class="node">
<title>1</title>
<polygon fill="#ffd39b" stroke="black" points="126,-108 72,-108 72,-104 68,-104 68,-100 72,-100 72,-80 68,-80 68,-76 72,-76 72,-72 126,-72 126,-108"/>
<polyline fill="none" stroke="black" points="72,-104 76,-104 76,-100 72,-100"/>
<polyline fill="none" stroke="black" points="72,-80 76,-80 76,-76 72,-76"/>
<text xml:space="preserve" text-anchor="start" x="83.62" y="-86.33" font-family="Times,serif" font-weight="bold" font-size="14.00">B:</text>
<text xml:space="preserve" text-anchor="start" x="100.88" y="-86.33" font-family="Times,serif" font-size="14.00">1 </text>
</g>
<!-- 1&#45;&gt;2 -->
<g id="edge2" class="edge">
<title>1-&gt;2</title>
<path fill="none" stroke="#777777" d="M90.1,-71.7C86.09,-63.9 81.26,-54.51 76.8,-45.83"/>
<polygon fill="#777777" stroke="#777777" points="72.35,-37.19 80.93,-44.02 74.08,-40.55 76.93,-46.08 76.93,-46.08 76.93,-46.08 74.08,-40.55 72.93,-48.14 72.35,-37.19"/>
</g>
</g>
</svg>