<svg xmlns="http://www.w3.org/2000/svg" xmlns:xlink="http://www.w3.org/1999/xlink" width="208pt" height="319pt" viewBox="0.00 0.00 208.00 319.00">
<g id="graph0" class="graph" transform="scale(1 1) rotate(0) translate(4 315.3)">
<polygon fill="white" stroke="none" points="-4,4 -4,-315.3 204,-315.3 204,4 -4,4"/>
<!-- 0 -->
<g id="node1" class="node">
<title>0</title>
<ellipse fill="#99ccff" stroke="black" cx="100" cy="-283.77" rx="27.53" ry="27.53"/>
<text xml:space="preserve" text-anchor="middle" x="100" y="-279.09" font-family="Times,serif" font-size="14.00">A:0</text>
</g>
<!-- 1 -->
<g id="node2" class="node">
<title>1</title>
<polygon fill="#99ccff" stroke="black" points="54,-210.18 0,-210.18 0,-174.18 54,-174.18 54,-210.18"/>
<text xml:space="preserve" text-anchor="middle" x="27" y="-187.5" font-family="Times,serif" font-size="14.00">B:1</text>
</g>
<!-- 0&#45;&gt;1 -->
<g id="edge1" class="edge">
<title>0-&gt;1</title>
<path fill="none" stroke="#777777" d="M83.07,-261.99C72.63,-249.18 59.17,-232.66 48.05,-219.02"/>
<polygon fill="#777777" stroke="#777777" points="41.91,-211.48 51.71,-216.39 44.3,-214.41 48.23,-219.23 48.23,-219.23 48.23,-219.23 44.3,-214.41 44.74,-222.07 41.91,-211.48"/>
</g>
<!-- 2 -->
<g id="node3" class="node">
<title>2</title>
<ellipse fill="#99ccff" stroke="black" cx="100" cy="-192.18" rx="28.06" ry="28.06"/>
<text xml:space="preserve" text-anchor="middle" x="100" y="-187.5" font-family="Times,serif" font-size="14.00">C:2</text>
</g>
<!-- 0&#45;&gt;2 -->
<g id="edge2" class="edge">
<title>0-&gt;2</title>
<path fill="none" stroke="#777777" d="M100,-255.89C100,-248.32 100,-239.94 100,-231.83"/>
<polygon fill="#777777" stroke="#777777" points="100,-221.88 104.5,-231.88 100,-225.66 100,-231.88 100,-231.88 100,-231.88 100,-225.66 95.5,-231.88 100,-221.88"/>
</g>
<!-- 3 -->
<g id="node4" class="node">
<title>3</title>
<polygon fill="#99ccff" stroke="black" points="200,-210.18 146,-210.18 146,-174.18 200,-174.18 200,-210.18"/>
<text xml:space="preserve" text-anchor="middle" x="173" y="-187.5" font-family="Times,serif" font-size="14.00">D:3</text>
</g>
<!-- 0&#45;&gt;3 -->
<g id="edge3" class="edge">
<title>0-&gt;3</title>
<path fill="none" stroke="#777777" d="M116.93,-261.99C127.37,-249.18 140.83,-232.66 151.95,-219.02"/>
<polygon fill="#777777" stroke="#777777" points="158.09,-211.48 155.26,-222.07 155.7,-214.41 151.77,-219.23 151.77,-219.23 151.77,-219.23 155.7,-214.41 148.29,-216.39 158.09,-211.48"/>
</g>
<!-- 4 -->
<g id="node5" class="node">
<title>4</title>
<ellipse fill="#99ccff" stroke="black" cx="100" cy="-100.06" rx="28.06" ry="28.06"/>
<text xml:space="preserve" text-anchor="middle" x="100" y="-95.38" font-family="Times,serif" font-size="14.00">E:4</text>
</g>
<!-- 1&#45;&gt;4 -->
<g id="edge4" class="edge">
<title>1-&gt;4</title>
<path fill="none" stroke="#777777" d="M41.08,-173.8C50.89,-161.69 64.23,-145.22 75.74,-131.01"/>
<polygon fill="#777777" stroke="#777777" points="81.85,-123.46 79.05,-134.07 79.47,-126.4 75.56,-131.23 75.56,-131.23 75.56,-131.23 79.47,-126.4 72.06,-128.4 81.85,-123.46"/>
</g>
<!-- 2&#45;&gt;4 -->
<g id="edge5" class="edge">
<title>2-&gt;4</title>
<path fill="none" stroke="#777777" d="M100,-163.65C100,-156.05 100,-147.66 100,-139.56"/>
<polygon fill="#777777" stroke="#777777" points="100,-129.64 104.5,-139.64 100,-133.42 100,-139.64 100,-139.64 100,-139.64 100,-133.42 95.5,-139.64 100,-129.64"/>
</g>
<!-- 3&#45;&gt;4 -->
<g id="edge6" class="edge">
<title>3-&gt;4</title>
<path fill="none" stroke="#777777" d="M158.92,-173.8C149.11,-161.69 135.77,-145.22 124.26,-131.01"/>
<polygon fill="#777777" stroke="#777777" points="118.15,-123.46 127.94,-128.4 120.53,-126.4 124.44,-131.23 124.44,-131.23 124.44,-131.23 120.53,-126.4 120.95,-134.07 118.15,-123.46"/>
</g>
<!-- 5 -->
<g id="node6" class="node">
<title>5</title>
<polygon fill="#99ccff" stroke="black" points="127,-36 73,-36 73,0 127,0 127,-36"/>
<text xml:space="preserve" text-anchor="middle" x="100" y="-13.32" font-family="Times,serif" font-size="14.00">F:5</text>
</g>
<!-- 4&#45;&gt;5 -->
<g id="edge7" class="edge">
<title>4-&gt;5</title>
<path fill="none" stroke="#777777" d="M100,-71.51C100,-63.61 100,-54.98 100,-47.05"/>
<polygon fill="#777777" stroke="#777777" points="100,-37.31 104.5,-47.31 100,-41.09 100,-47.31 100,-47.31 100,-47.31 100,-41.09 95.5,-47.31 100,-37.31"/>
</g>
</g>
</svg>